<svg id="Capa_2" data-name="Capa 2" xmlns="http://www.w3.org/2000/svg" xmlns:xlink="http://www.w3.org/1999/xlink" viewBox="0 0 2100 2100"><defs><style>.cls-1{fill:url(#Degradado_sin_nombre_35);}.cls-2{fill:#fff;}</style><radialGradient id="Degradado_sin_nombre_35" cx="1050" cy="1050" r="1050" gradientUnits="userSpaceOnUse"><stop offset="0" stop-color="#5b3d7e"/><stop offset="0.51" stop-color="#5a3c7c"/><stop offset="0.69" stop-color="#553975"/><stop offset="0.82" stop-color="#4c346a"/><stop offset="0.92" stop-color="#402d59"/><stop offset="1" stop-color="#332547"/></radialGradient></defs><circle class="cls-1" cx="1050" cy="1050" r="1050"/><path class="cls-2" d="M1329.58,992.09a29.93,29.93,0,0,0,3.18,44.81c113.52,86.28,147.94,183.18,118.69,316.8-23.07,105.34-118.11,190.79-256,198.76-169.81,9.82-340.52,3.34-514.77,2.61a30,30,0,0,1-29.88-30V598.49a30,30,0,0,1,29.88-30c189.19-.73,375.21-7.69,560.12,3.94,84.52,5.31,146.61,74.32,169.15,166C1433.85,835.48,1411.45,909.18,1329.58,992.09ZM829,1378.78a30,30,0,0,0,29.78,30c100,.74,194.82,4.58,289-1.85,78.55-5.37,126.7-54.81,128.84-140.94,2.06-83-31-144.11-115.84-149.23-99.59-6-199.74-2.4-302-1.72A30,30,0,0,0,829,1145Zm1.36-446.33a30,30,0,0,0,29.71,30c97.15,1,191.23,5.82,284.21-2.46,73.17-6.52,93.75-71.65,90-138.43-3.82-67.2-42.43-109-109.3-111-87.4-2.65-174.92-1.14-264.66-.81a30,30,0,0,0-29.91,30Z"/></svg>