<svg id="Capa_3" data-name="Capa 3" xmlns="http://www.w3.org/2000/svg" viewBox="0 0 1841.96 2096.99"><defs><style>.cls-1{fill:#046cc4;}.cls-2{fill:#68c1eb;}.cls-3{fill:#fff;}</style></defs><path class="cls-1" d="M137,34.36,300.77,1869.1a30,30,0,0,0,21.79,26.23l722.21,202.24a30.06,30.06,0,0,0,16.32,0l722.5-206a30,30,0,0,0,21.64-26l173.46-1831a30,30,0,0,0-29.86-32.83h-1782A30,30,0,0,0,137,34.36Z" transform="translate(-136.87 -1.69)"/><path class="cls-2" d="M1059.34,1900a30,30,0,0,0,38,28.91l553.17-153.66a30,30,0,0,0,21.85-26.28L1809.07,193.45a30,30,0,0,0-29.75-32.63l-689.85-2.92a30,30,0,0,0-30.13,30Z" transform="translate(-136.87 -1.69)"/><path class="cls-3" d="M497.74,593.81,482.41,421.13a30,30,0,0,1,29.88-32.65h1092.8A30,30,0,0,1,1635,421.15L1534.29,1545a30,30,0,0,1-21.55,26.14l-445.12,128.71a30.1,30.1,0,0,1-16.57,0l-447.78-127.8a30,30,0,0,1-21.65-26.22l-27.25-309.72a30,30,0,0,1,29.89-32.63H757a30,30,0,0,1,29.89,27.42l11.82,136.69a30,30,0,0,0,22,26.37l229.8,62.24a30,30,0,0,0,15.8,0L1292.6,1394a30,30,0,0,0,21.9-26l24.29-249a30,30,0,0,0-29.86-32.91H567.49a30,30,0,0,1-29.89-27.38L522.85,890a30,30,0,0,1,29.81-32.62l785.06-1.85a30,30,0,0,0,29.79-27L1384.83,654A30,30,0,0,0,1355,621l-827.34.14A30,30,0,0,1,497.74,593.81Z" transform="translate(-136.87 -1.69)"/></svg>