<svg id="Capa_2" data-name="Capa 2" xmlns="http://www.w3.org/2000/svg" viewBox="0 0 1899.22 2045.21"><defs><style>.cls-1{fill:#274a4c;}.cls-2{fill:#45838e;}.cls-3{fill:#47848f;}</style></defs><path class="cls-1" d="M1083.06,27c56.76,24,96.86,61.23,101.31,126.5.58,8.47,5.67,13.67,12.36,17.79,152.25,93.77,226.41,242.85,277.4,403,105.41,331.14,105.73,666,17.55,1001.43-1.53,5.84-3.62,11.53-5.3,17.32-5.84,20.14-14.49,40.41-40,32.25-23.18-7.41-18.43-29.17-13.12-46.56,46.32-151.69,65.59-307.19,65.67-465.14.13-247.69-36-487.81-158.22-708.59-37-66.83-83.16-126.53-146.72-171.47-15.73-11.12-24.23-13.5-39.48,4.82-41,49.28-92.17,61.82-147.08,42.32-49.95-17.73-85-64-88.11-116.52s30-102.13,85.08-128c5.17-2.42,9.73-6.11,14.57-9.21Z" transform="translate(-100.78 -27)"/><path class="cls-2" d="M991.46,2072.21C818,2007.64,726.06,1869.64,659,1709.14c-4.65-11.15-10.11-22.07-13.51-33.59-5.39-18.27-16.64-40.17,11.82-48.94,26.63-8.2,33.78,13.65,40.75,32.19,30.49,81.18,69.38,157.75,124,225.83,1,1.19,1.88,2.39,2.83,3.57,135.67,169.26,305.1,172.77,446.67,8.74,17.8-20.61,32.83-43.57,49.17-65.42,12.06-16.12,20.58-43.67,47.91-26.35,29.46,18.66,7.64,39.74-3.86,57.94-63.21,100.09-147.21,174.69-263.48,209.1Z" transform="translate(-100.78 -27)"/><path class="cls-1" d="M231.13,1711.91c-55-.21-100.49-30.74-120.81-81.13-19.56-48.51-9-106.4,31.19-141.67,19.09-16.75,25.78-33,26.55-57.56,3.2-102.81,42.71-194.21,97.66-279.15C407,934,605.62,778.84,830.32,653.13,967.67,576.29,1112.81,518.55,1266.19,482c20-4.78,48.69-20.67,56.14,14.48,7,33.24-24.27,33.2-45,38.5-350.8,89.85-648.7,266.17-886.43,538.31-79.46,91-141.94,192.83-164.19,314.45-6.48,35.42-14.87,63.16,40.54,70.33,63.44,8.21,103.87,76.73,95.22,140.1C353.14,1666.7,300.64,1712.18,231.13,1711.91Z" transform="translate(-100.78 -27)"/><path class="cls-1" d="M1870.72,1711.64c-4.58,0-10.17,1.73-13.58-.26-58.53-34.07-109.33,2.42-162.59,16.94-158.4,43.16-314.67,22.14-469-19.76-309.4-84-577-240.67-804.87-464.37a494.56,494.56,0,0,1-33.81-37c-10.6-12.78-7.94-25.38,4-35.94,10.59-9.34,22.13-9.84,33-.53,8.07,6.91,15.47,14.59,23,22.09,258.87,257.79,565.29,427.88,928,492.3,107.52,19.1,215.27,19.66,321.39-13.11,35.68-11,59-19.77,45.59-69.15-19.44-71.5,37.13-141.69,109.39-149.36,78.83-8.36,144.88,44.7,148.47,119.27C2003.6,1651.47,1948,1711.4,1870.72,1711.64Z" transform="translate(-100.78 -27)"/><path class="cls-2" d="M550.35,450.41c70.12-2.73,139.76,3.15,209,14.26,17.62,2.82,34,9.38,31.58,31.15-2.83,25.72-23,24.92-41.63,22.25-80-11.45-160-21.88-241-10.11-27,3.93-54.48,6.78-80.75,13.76-168.84,44.88-238.85,168-192,335.35,12.28,43.87,30.63,85.14,52.44,125,10.06,18.42,17.82,38.71-6.78,50.35-22.42,10.61-32.41-8.52-41.41-24.66-35.63-63.91-61.68-131.33-71.15-204-19.16-147.18,57.88-269.34,202.64-321.39C429,461.65,488.68,450.49,550.35,450.41Z" transform="translate(-100.78 -27)"/><path class="cls-2" d="M1935.89,765.42c-2.3,121.51-55.89,224.18-121.68,322-18.57,27.62-40.45,53-60.93,79.38-12.73,16.37-29.08,25-46.74,10-16.8-14.3-7.18-29.63,4.22-43.58,54.89-67.21,104-138,137.08-218.72,16.11-39.36,29.44-79.68,31.82-122.29,9.14-163.91-95.19-268.71-281.13-283.18-22.8-1.78-45.8-1.54-68.47-4.22-14.47-1.71-25.74-9.8-25.84-26.67s9.93-23.14,25.53-25.94c120.47-21.59,303.47,57.18,365,157.57C1924,657.4,1935.81,702.58,1935.89,765.42Z" transform="translate(-100.78 -27)"/><path class="cls-3" d="M1051.49,1007.73c54.16-.24,96,40.43,96,93.29,0,52.22-42.64,95-95.33,95.74-50.74.69-96.8-44.46-96.7-94.79C955.54,1050.19,998.58,1008,1051.49,1007.73Z" transform="translate(-100.78 -27)"/></svg>