<svg id="Capa_1" data-name="Capa 1" xmlns="http://www.w3.org/2000/svg" viewBox="0 0 2100 2100"><defs><style>.cls-1{fill:#744c9e;}</style></defs><path class="cls-1" d="M1050,0C470.1,0,0,470.1,0,1050S470.1,2100,1050,2100s1050-470.1,1050-1050S1629.9,0,1050,0ZM225.62,1061l813.43,813.43C592.38,1868.56,231.44,1507.61,225.62,1061Zm1008.92,792.82L246.23,865.46c83.8-366.52,411.84-640,803.77-640,274,0,516.67,133.65,666.61,339.28L1602.45,665.49C1480.83,491.07,1278.76,376.92,1050,376.92c-291.25,0-539.28,185-633,443.9L1279.18,1683c209.39-75.83,370.43-252.58,424.36-470.71H1343.82V1048.26h530.7C1874.52,1441.93,1601.06,1770,1234.54,1853.77Z"/></svg>