<svg id="Capa_1" data-name="Capa 1" xmlns="http://www.w3.org/2000/svg" viewBox="0 0 1829.49 2056.03"><defs><style>.cls-1{fill:#e435ab;}</style></defs><path class="cls-1" d="M136.09,1475.22c0-84.18,51.89-154.42,130.09-178.16,7.74-2.35,9.5-5.64,9.49-13.2q-.35-234,0-468c0-7.07-1.47-10.52-9-12.67-71.69-20.44-123.48-83.53-130.25-157.94-8.85-97.15,56.82-183.12,152.94-198.3,59.5-9.39,111.9,7.38,156,48.68,4.93,4.61,8.1,5.17,14,1.76Q660.81,380.63,862.72,264.5c8.56-4.92,11.2-9.16,8.82-19.47C847.11,139.26,921.67,35.08,1029.7,23.18c98.64-10.86,188.82,59.37,201.93,157.31a175.73,175.73,0,0,1-4.06,69.33c-1.73,6.46.15,9.3,5.44,12.35q171.93,99,343.71,198.24c21.7,12.53,43.46,24.95,65,37.74,4.88,2.9,7.74,2.3,11.91-1.54,54.14-49.92,117.07-65.52,186.79-41.83,69.45,23.6,110.16,74.26,122.3,146.4,14.83,88-42.67,177.28-128.91,202-7,2-9.51,4.67-9.5,12.28q.39,234.45,0,468.9c0,8,2.63,10.63,10,12.83,77.47,23.31,130.6,95,130.45,175.42-.18,92-69.55,170.37-160.9,181.27-59.68,7.12-110.94-11.16-153.58-53.33-4.81-4.75-8-5.33-13.93-1.88q-201.54,116.76-403.42,232.91c-6.73,3.87-8.43,7.13-6.36,14.87,29.15,108.94-43.29,216-155.47,230.33-94.3,12-185.69-56-201.4-149.58-4.35-26-3.77-51.65,2.72-77.1,1.4-5.49.56-8.22-4.5-11.13Q708,1747,548.4,1654.64c-30-17.33-60.15-34.49-90-52.16-5.42-3.21-8.1-2.33-12.47,1.68-53.24,48.81-115.25,64.06-183.78,41.93-67.69-21.86-107.93-70.51-123.28-139.76A136.41,136.41,0,0,1,136.09,1475.22Zm913.54-46q272.05,0,544.1,0c5,0,9.19.54,11-6.45a168.66,168.66,0,0,1,42.91-76c6.24-6.38,5.06-10.43,1.33-16.89q-136.54-236-272.78-472.21-135.69-235-271.28-470.06c-2.9-5-5.38-5.92-10.89-4.51a175.64,175.64,0,0,1-88.16,0c-5.75-1.47-8,0-10.76,4.79q-272.72,472.76-545.81,945.3c-2.83,4.89-2.75,7.75,1.28,11.83a171.77,171.77,0,0,1,43.74,74.59c2.14,7.56,5.07,9.85,13,9.84Q778.46,1429,1049.63,1429.23Zm0,86.65q-272.05,0-544.12,0c-3.49,0-7.89-1.64-9.51,3.65-1.75,5.72,3.52,6.11,6.31,7.72Q705.81,1645,909.38,1762.59c6.16,3.57,9.82,3.72,15.49-1.57,33.94-31.68,74.43-48.55,120.89-49.44,52.76-1,98,17.59,135.24,55.05,3.51,3.52,5.85,4.21,10.22,1.4,8.81-5.67,18.1-10.59,27.18-15.84q190.72-110.12,381.56-220c6.32-3.62,6-7.08,4.11-12.44-2-5.7-6.64-3.75-10.33-3.75Q1321.67,1515.83,1049.61,1515.88ZM362.67,1049.93v233.55c0,2.34.1,4.67,0,7-.13,2.8,1.15,4.06,3.81,4.9,2.86.89,4.33,0,5.62-2.38,1.94-3.58,4.05-7.08,6.09-10.61Q534,1012.57,689.73,742.75,804.44,544.07,919.1,345.38c1.68-2.93,5.72-6,1.62-10s-7,.13-9.91,1.82Q863,364.6,815.38,392.17,658.72,482.6,502,573c-5.3,3-7.08,5.63-5.51,12.21a180.24,180.24,0,0,1,4.57,57.19c-6.11,75-56.24,138.06-128.72,160.19-8.11,2.48-9.89,5.94-9.86,13.8C362.79,894.22,362.67,972.07,362.67,1049.93Zm1241.2-467.5c2.15-5.91-2-6.81-4.9-8.48q-205.42-118.68-410.9-237.27c-2.55-1.47-5.12-4.51-8.56-1.49-4,3.5-.64,6.39,1,9.17q79,137,158.15,274l355.64,616.05q16.38,28.38,32.79,56.75c1.53,2.65,2.91,4.83,6.7,4,4.28-.9,3.43-4,3.57-6.79.06-1.16,0-2.33,0-3.5q0-234.84.19-469.7c0-7.49-2.33-10.22-9.35-12.37-73-22.32-122.83-84.83-129.27-160.73C1597.15,621.46,1599.64,601.43,1603.87,582.43Z" transform="translate(-135.56 -22.07)"/></svg>