<svg id="Capa_2" data-name="Capa 2" xmlns="http://www.w3.org/2000/svg" viewBox="0 0 1841.96 2096.99"><defs><style>.cls-1{fill:#e44d26;}.cls-2{fill:#f2642b;}.cls-3{fill:#fcfcfc;}</style></defs><path class="cls-1" d="M733.1,652.88l15.43,177.06a30,30,0,0,0,29.89,27.39h280.92V620.28H763A30,30,0,0,0,733.1,652.88Z" transform="translate(-136.87 -1.69)"/><path class="cls-1" d="M1948.83,1.69h-1782A30,30,0,0,0,137,34.36L300.77,1869.1a30,30,0,0,0,21.79,26.23l722.21,202.24a30.06,30.06,0,0,0,16.32,0l722.5-206a30,30,0,0,0,21.64-26l173.46-1831A30,30,0,0,0,1948.83,1.69ZM1809.07,193.45,1672.39,1748.94a30,30,0,0,1-21.85,26.28l-553.17,153.66a30,30,0,0,1-38-28.91V1701a30.07,30.07,0,0,1-8.46-1.15l-447.64-127.8a30,30,0,0,1-21.65-26.18L553.9,1235.71a30,30,0,0,1,30-32.67l172.94.76a30,30,0,0,1,29.75,27.37L798.66,1368a30,30,0,0,0,22.08,26.33l230.72,62.17a30.07,30.07,0,0,0,7.88,1V1086.62l-491.65,1.56a30,30,0,0,1-30-27.42l-55.23-639.7a30,30,0,0,1,29.89-32.58h547V187.9a30,30,0,0,1,30.13-30l689.85,2.92A30,30,0,0,1,1809.07,193.45Z" transform="translate(-136.87 -1.69)"/><path class="cls-2" d="M1293.54,1394.34a30,30,0,0,0,21.93-26.13l23.36-249.59a30,30,0,0,0-30-32.79l-249.52.79v370.89a30,30,0,0,0,7.87-1.07Z" transform="translate(-136.87 -1.69)"/><path class="cls-2" d="M1779.32,160.82l-689.85-2.92a30,30,0,0,0-30.13,30V388.48h545.15a30,30,0,0,1,29.88,32.61l-15,171.8a30,30,0,0,1-29.88,27.39H1059.34V857.33H1566.6a30,30,0,0,1,29.86,32.88L1533.34,1545a30,30,0,0,1-21.5,25.93l-444.36,128.95a30.06,30.06,0,0,1-8.14,1.18v199a30,30,0,0,0,38,28.91l553.17-153.66a30,30,0,0,0,21.85-26.28L1809.07,193.45A30,30,0,0,0,1779.32,160.82Z" transform="translate(-136.87 -1.69)"/><path class="cls-3" d="M1511.84,1570.88a30,30,0,0,0,21.5-25.93l63.12-654.74a30,30,0,0,0-29.86-32.88H778.42a30,30,0,0,1-29.89-27.39L733.1,652.88A30,30,0,0,1,763,620.28h826.48a30,30,0,0,0,29.88-27.39l15-171.8a30,30,0,0,0-29.88-32.61H512.37a30,30,0,0,0-29.89,32.58l55.23,639.7a30,30,0,0,0,30,27.42l491.65-1.56,249.52-.79a30,30,0,0,1,30,32.79l-23.36,249.59a30,30,0,0,1-21.93,26.13l-226.33,62.1a30.06,30.06,0,0,1-15.75,0l-230.72-62.17A30,30,0,0,1,798.66,1368L786.6,1231.17a30,30,0,0,0-29.75-27.37L583.91,1203a30,30,0,0,0-30,32.67l27.69,310.17a30,30,0,0,0,21.65,26.18l447.64,127.8a30.13,30.13,0,0,0,16.6,0Z" transform="translate(-136.87 -1.69)"/></svg>