<svg id="Capa_3" data-name="Capa 3" xmlns="http://www.w3.org/2000/svg" viewBox="0 0 1841.96 2096.99"><defs><style>.cls-1{fill:#e8aa24;}.cls-2{fill:#f4cc39;}.cls-3{fill:#f2642b;}.cls-4{fill:#fff;}.cls-5{fill:#e44d26;}</style></defs><path class="cls-1" d="M137,34.36,300.77,1869.1a30,30,0,0,0,21.79,26.23l722.21,202.24a30.06,30.06,0,0,0,16.32,0l722.5-206a30,30,0,0,0,21.64-26l173.46-1831a30,30,0,0,0-29.86-32.83h-1782A30,30,0,0,0,137,34.36Z" transform="translate(-136.87 -1.69)"/><path class="cls-2" d="M1071.34,165.17V1877.25a30,30,0,0,0,38,28.9l553.17-153.66a30,30,0,0,0,21.85-26.28L1821.07,170.72a30,30,0,0,0-29.75-32.62l-689.85-2.93A30,30,0,0,0,1071.34,165.17Z" transform="translate(-136.87 -1.69)"/><path class="cls-3" d="M1338.71,1086.8" transform="translate(-136.87 -1.69)"/><path class="cls-4" d="M600.06,1572.08l391,111.46a30,30,0,0,0,38.23-28.69l6.61-1237a30,30,0,0,0-30-30.16H826a30,30,0,0,0-30,30v932.19a30,30,0,0,1-37.36,29.08L600,1338.74a30,30,0,0,0-37.24,31.75L578.4,1545.9A30,30,0,0,0,600.06,1572.08Z" transform="translate(-136.87 -1.69)"/><path class="cls-4" d="M1619.24,890.46l-62.72,654.61a30,30,0,0,1-21.51,26l-391.57,113.59a30,30,0,0,1-38.35-28.81V1475.39a30,30,0,0,1,22.06-28.93l189.16-51.9a30,30,0,0,0,21.93-26.14L1361.58,1119a30,30,0,0,0-30.13-32.79l-196.11,1.67a30,30,0,0,1-30.25-30v-640a30,30,0,0,1,30-30h492.22a30,30,0,0,1,29.9,32.56l-14.75,172.42a30,30,0,0,1-29.9,27.45H1374.83a30,30,0,0,0-30,30V828a30,30,0,0,0,30.06,30l214.42-.44A30,30,0,0,1,1619.24,890.46Z" transform="translate(-136.87 -1.69)"/><path class="cls-4" d="M1038.64,387.64" transform="translate(-136.87 -1.69)"/><path class="cls-3" d="M1107.43,387.64" transform="translate(-136.87 -1.69)"/><path class="cls-3" d="M1036.08,387.64" transform="translate(-136.87 -1.69)"/><path class="cls-5" d="M1036.08,387.64" transform="translate(-136.87 -1.69)"/><path class="cls-3" d="M1107.43,387.64" transform="translate(-136.87 -1.69)"/><path class="cls-4" d="M1107.43,387.64" transform="translate(-136.87 -1.69)"/><path class="cls-4" d="M1105.09,1088.15" transform="translate(-136.87 -1.69)"/><path class="cls-4" d="M1107.43,387.64" transform="translate(-136.87 -1.69)"/><path class="cls-4" d="M1105.09,1088.15" transform="translate(-136.87 -1.69)"/><path class="cls-4" d="M1107.43,387.64" transform="translate(-136.87 -1.69)"/><path class="cls-4" d="M1105.09,1452.51" transform="translate(-136.87 -1.69)"/><path class="cls-4" d="M1105.09,1695.73" transform="translate(-136.87 -1.69)"/><path class="cls-4" d="M2493.76,681.38" transform="translate(-136.87 -1.69)"/><path class="cls-4" d="M1105.09,1088.15" transform="translate(-136.87 -1.69)"/><path class="cls-4" d="M1107.43,387.64" transform="translate(-136.87 -1.69)"/></svg>