<svg id="Capa_2" data-name="Capa 2" xmlns="http://www.w3.org/2000/svg" viewBox="0 0 1873.4 2088.57"><defs><style>.cls-1{fill:#81c565;}.cls-2{fill:#412e1e;}.cls-3{fill:#599636;}.cls-4{fill:#6cac48;}.cls-5{fill:#c2bfbf;}</style></defs><path class="cls-1" d="M1908,242c-51-62-314.37-242-858-230C502.6,17.67,292.79,149.41,201.52,232.11,179.62,284.49,130.45,370.89,116,635c-9.17,156.55,28.25,383.42,50,494,23.33,118.65,131.21,329.76,225,446,111,151,334,370,659,525,0,0,424-199,649-500,61.3-79.73,214.55-335.61,241-482C1963,990.93,2051.27,516.22,1908,242Z" transform="translate(-114.58 -11.43)"/><path class="cls-2" d="M1049.18,1931.76A1758.9,1758.9,0,0,1,737,1721.34c-88.64-74.77-168.59-158.29-225.11-235.18l-2-2.72-2.12-2.63c-38.22-47.37-83.77-120.53-121.85-195.69-37.17-73.38-64.35-142.56-72.71-185.06C285.56,959.58,258.59,766,265.74,643.77l0-.58c5.13-93.82,15.5-172.56,30.83-234A528.48,528.48,0,0,1,325,324.29C458.59,221.54,708.62,165.54,1051.55,162h.88l.88,0c16.11-.35,32.31-.53,48.15-.53,106.69,0,207.89,8.11,300.79,24.1,77.07,13.27,148.55,31.95,212.47,55.52,92.71,34.18,147.57,70.85,169.33,88.95,40.91,90.76,59.09,226,52.65,393.13-6,156.64-32.23,301.45-43.42,363.28l-.89,4.92c-4.07,22.51-21.19,89.22-92.12,222-44.78,83.81-94.36,161.67-120.18,195.26l-.62.81-.61.81C1428.15,1711.81,1168.36,1867.25,1049.18,1931.76Z" transform="translate(-114.58 -11.43)"/><path class="cls-3" d="M1049,274.46l39.81,76.19a226.87,226.87,0,0,0,30.06,38.09,1057.87,1057.87,0,0,1,93.41,107.63c67.45,90.24,112.94,190.46,145.42,298.84A747.44,747.44,0,0,1,1388.6,998c3.26,205.33-65.81,381.64-205.09,528.16a594.76,594.76,0,0,1-73.17,63.75c-13.8,0-20.33-10.79-26-20.71a172.5,172.5,0,0,1-20.32-59.61c-4.9-24.84-8.12-49.68-6.53-75.33v-11.59c-1.12-2.47-13.28-1142.38-8.44-1148.23Z" transform="translate(-114.58 -11.43)"/><path class="cls-4" d="M1049,272c-1.63-3.33-3.26-.81-4.89.8.79,16.63-4.89,31.45-13.8,45.6-9.79,14.06-22.74,24.84-35.75,36.43C922.36,418.52,865.49,495.51,820,581.62c-60.59,115.89-91.82,240.1-100.68,370.86-4,47.16,14.64,213.59,29.23,261.61,39.8,127.48,111.3,234.3,203.92,327,22.75,22.32,47.08,43,72.25,62.93,7.31,0,8.11-6.65,9.78-11.59a229.94,229.94,0,0,0,7.32-32.29L1058.09,1436Z" transform="translate(-114.58 -11.43)"/><path class="cls-5" d="M1088.85,1640.37c1.63-19,10.58-34.77,20.32-50.49-9.79-4.13-17.06-12.35-22.75-21.52a154.66,154.66,0,0,1-12.11-27.31c-11.38-34.77-13.8-71.24-17.06-106.77v-21.52c-4.06,3.33-4.9,31.45-4.9,35.63a840.19,840.19,0,0,1-14.63,111.76c-2.43,14.91-4.06,29.78-13,43a16.81,16.81,0,0,0,.79,5.79c14.63,43.89,18.64,88.58,21.11,134.13v16.63c0,19.85-.79,15.67,15.38,22.32,6.53,2.47,13.8,3.32,20.33,8.26,4.89,0,5.68-4.13,5.68-7.45l-2.42-27.31v-76.19c-.79-13.3,1.63-26.5,3.26-38.95Z" transform="translate(-114.58 -11.43)"/></svg>