<svg id="Capa_1" data-name="Capa 1" xmlns="http://www.w3.org/2000/svg" viewBox="0 0 2066.55 2069.24"><defs><style>.cls-1{fill:#fff;}</style></defs><path d="M819.57,23.21,1752.84,266.8A100,100,0,0,1,1824,337l255.69,930a100,100,0,0,1-25.26,96.76l-677.58,686.45a100,100,0,0,1-96.43,26.51L347.16,1833.2A100,100,0,0,1,276,1763L20.3,832.93a100,100,0,0,1,25.26-96.76L723.14,49.72A100,100,0,0,1,819.57,23.21Z" transform="translate(-16.73 -15.38)"/><path class="cls-1" d="M1000,2071.22,190.59,1603.91a100,100,0,0,1-50-86.6V582.69a100,100,0,0,1,50-86.6L1000,28.78a100,100,0,0,1,100,0l809.41,467.31a100,100,0,0,1,50,86.6v934.62a100,100,0,0,1-50,86.6L1100,2071.22A100,100,0,0,1,1000,2071.22Z" transform="translate(-16.73 -15.38)"/><g id="Page-1"><g id="Black-Next.js"><g id="next-black"><g id="EXT-_-Type-something" data-name="EXT-+-Type-something"><path id="EXT" d="M702.38,860.94H950.69v19.64H725.14v147.83h212.1v19.64H725.14v162.3H953.28V1230H702.38Zm270.56,0h26.38l116.91,162.3,119.5-162.3,162.54-206.15-267,385.5L1268.84,1230h-27.42l-125.19-172.64L990.52,1230h-26.9l138.64-189.7Zm305.72,19.64V860.94h283v19.64H1431.27V1230h-22.76V880.58Z" transform="translate(-16.73 -15.38)"/><polygon id="Type-something" points="375.01 845.56 403.47 845.56 795.8 1429.84 633.67 1214.61 398.81 873.47 397.77 1214.61 375.01 1214.61 375.01 845.56"/></g><path id="_.JS" data-name=".JS" d="M1559.34,1204.42a8.22,8.22,0,1,0-8.14-8.22A8,8,0,0,0,1559.34,1204.42Zm22.37-21.63c0,13.68,9.9,22.62,24.35,22.62,15.39,0,24.7-9.21,24.7-25.21v-56.33h-12.41v56.27c0,8.89-4.48,13.63-12.4,13.63-7.08,0-11.9-4.41-12.07-11Zm65.27-.71c.88,14.23,12.78,23.33,30.5,23.33,18.93,0,30.78-9.54,30.78-24.77,0-12-6.75-18.59-23.14-22.4l-8.8-2.15c-10.41-2.43-14.62-5.68-14.62-11.36,0-7.17,6.54-11.86,16.33-11.86,9.3,0,15.73,4.57,16.89,11.91H1707c-.72-13.4-12.57-22.84-28.79-22.84-17.44,0-29.06,9.44-29.06,23.61,0,11.7,6.58,18.65,21,22l10.3,2.48c10.57,2.48,15.22,6.12,15.22,12.19,0,7.06-7.3,12.19-17.27,12.19-10.68,0-18.1-4.8-19.15-12.35Z" transform="translate(-16.73 -15.38)"/></g></g></g></svg>