<svg id="Capa_1" data-name="Capa 1" xmlns="http://www.w3.org/2000/svg" viewBox="0 0 1662 1015.43"><defs><style>.cls-1{fill:#333;}.cls-2{fill:#699e63;}.cls-3{fill:#41863f;}.cls-4{fill:#5aa745;}.cls-5{fill:#54a144;}.cls-6{fill:#5cab46;}.cls-7{fill:#529d43;}.cls-8{fill:#4c9542;}.cls-9{fill:#61b147;}.cls-10{fill:#5fae47;}.cls-11{fill:#57a445;}.cls-12{fill:#41883e;}.cls-13{fill:#4f9942;}.cls-14{fill:#63b448;}.cls-15{fill:#4d9742;}.cls-16{fill:#65b748;}.cls-17{fill:#519b43;}.cls-18{fill:#67b949;}.cls-19{fill:#458d40;}.cls-20{fill:#6bbe4a;}.cls-21{fill:#69bb49;}.cls-22{fill:#499141;}.cls-23{fill:#409338;}.cls-24{fill:#539f44;}.cls-25{fill:#418b3c;}.cls-26{fill:#418f3a;}.cls-27{fill:#409736;}.cls-28{fill:#409b34;}.cls-29{fill:#56a244;}.cls-30{fill:#409f31;}.cls-31{fill:#6da167;}.cls-32{fill:#3fa52e;}.cls-33{fill:#fefefe;}.cls-34{fill:#fdfdfd;}.cls-35{fill:#70a36a;}.cls-36{fill:#f2f7f2;}</style></defs><path class="cls-1" d="M1445.88,518.89c0,74-.18,148.05.16,222.07.06,12.24-4.11,20.12-15,26.27q-74.67,42.3-148.72,85.73c-10.24,6-19.08,6.2-29.41.16q-74.52-43.59-149.56-86.27c-10.5-6-14.6-13.73-14.54-25.52q.47-85.87,0-171.74c0-11.41,4-19,14.09-24.78q75.48-42.9,150.47-86.68c10-5.83,18.85-5.92,28.55.2,10,6.31,20.44,11.95,30.74,17.77,10.73,6.07,14.16,4.1,14.17-8.31q.07-115,0-230a60.82,60.82,0,0,1,.21-8.86c1.23-8,7.25-11.77,14.25-7.94q48.06,26.23,95.69,53.23c7.85,4.43,8.88,12.32,8.86,20.6q-.14,80.92,0,161.86Z" transform="translate(-219 -219.51)"/><path class="cls-1" d="M219.17,681.12c0-38.84.27-77.68-.17-116.52-.13-11.93,4.32-19.5,14.74-25.39q74.76-42.25,149-85.48c10.35-6,19-6.11,29.35-.07q74.18,43.24,149,85.49c10.77,6.09,15.12,14,15.06,26.31-.42,77.35-.36,154.7-.48,232,0,17.47-5.78,20.82-20.87,12.22-28-16-55.9-32.16-84.07-47.85-9.74-5.42-13.89-12.72-13.75-23.92.42-34.89-.06-69.78.27-104.67.11-11.42-3.9-19.4-14.18-24.8-11.64-6.12-22.91-13-34.27-19.61-7.9-4.62-15.49-4.24-23.28.39-11.6,6.89-23.23,13.74-35.09,20.16-8.85,4.79-12.38,11.8-12.31,21.7.23,35.22-.15,70.44.22,105.66.13,11.84-4.25,19.71-14.72,25.5-28.51,15.77-56.65,32.18-84.95,48.29-13,7.38-19,3.93-19-11q-.07-59.25,0-118.49Z" transform="translate(-219 -219.51)"/><path class="cls-1" d="M1525.32,652.88c0-28.64.29-57.28-.14-85.91-.17-11.44,3.89-19,14-24.77q75.52-42.9,150.55-86.7c9.63-5.62,17.9-5.67,27.58,0q74.49,43.71,149.49,86.56c10,5.74,14.71,13.12,14.1,24.73-.64,12.15-.38,24.36-.07,36.53.24,9.18-3.39,15.75-11.3,20.31-30.22,17.42-60.35,35-90.59,52.36-10.55,6-17.15,2.24-17.3-9.82-.15-12.51-.34-25,.09-37.52.24-7.19-2.53-11.55-8.77-14.95q-21.23-11.6-41.92-24.13c-6-3.66-11.25-4-17.4-.27q-21.14,12.75-42.76,24.65c-5.89,3.25-8.36,7.5-8.21,14.25.34,16.12.49,32.27,0,48.38-.27,8,2.91,12.57,9.69,16.42q74.7,42.35,149.12,85.2c4.82,2.75,10.76,4.89,10.93,11.56.19,7.28-6.12,9.42-11.26,12.27-28.19,15.66-56.47,31.14-84.5,47.08-9.55,5.43-18.07,5.66-27.76.1q-74.87-43.05-150.15-85.38c-9.38-5.28-13.65-12.32-13.53-23.08C1525.54,711.47,1525.32,682.18,1525.32,652.88Z" transform="translate(-219 -219.51)"/><path class="cls-2" d="M1221.89,1030.64c0,27.64-.3,55.29.12,82.93.23,15.09-6,25.59-19,33q-72,41.19-143.78,82.82c-13,7.51-25.42,7.37-38.21-.47-15.15-9.29-30.59-18.12-45.85-27.24-1.63-1-3.94-2.44-4.09-3.88-.32-2.9,3-2.81,4.9-3.82a6.64,6.64,0,0,0,.9-.4c15.85-11.57,30.42-7.81,44,4,13,11.3,24.43,9.87,39.22.73,41.15-25.42,83.53-48.88,125.66-72.7,7.27-4.11,9.81-8.81,9.75-17.1q-.57-78.48,0-157c0-7.15-2.24-11.27-8.5-14.83q-69.55-39.53-138.7-79.77c-5.5-3.2-9.5-3.56-15.21-.23Q963.58,897.26,893.59,937c-6,3.39-8.12,7.42-8.09,14.15q.32,79.47,0,158.94c0,7.23,2.37,11.43,8.74,14.75,11.38,5.93,22.22,12.87,33.48,19,22.27,12.18,37.82,3.1,37.83-21.94,0-52,.35-104-.25-156-.14-11.78,6-11.39,14.15-11.53,8.58-.15,14.21.39,14.1,11.79-.53,53.64-.16,107.28-.27,160.91-.06,26.27-10.58,42.66-30,47.67-14.68,3.79-29,2.35-42.29-4.53q-24.54-12.7-48.16-27.13c-8.91-5.43-13.59-14.36-13.61-25q-.17-87.36,0-174.73c0-11.36,5.39-20.38,15.2-26.07q75.18-43.6,150.62-86.79c10.06-5.74,21.14-5.66,31.25.11q75.46,43.13,150.61,86.8c10.42,6.07,15.14,16,15.08,28.19C1221.79,974,1221.88,1002.34,1221.89,1030.64Z" transform="translate(-219 -219.51)"/><path class="cls-2" d="M1085.65,1116c-16.29.17-32.25-1.7-47.38-8.12-18.29-7.76-28.43-21.61-30.63-41.36-.78-7,1.12-10.91,9-10a32.13,32.13,0,0,0,7.9,0c7.06-.94,11,1.47,12.22,8.93,2.09,12.63,10.77,19.26,22.65,21.78a127,127,0,0,0,52,.41,41.13,41.13,0,0,0,9.24-3.37c8-3.82,11.5-10.65,11.28-19.2s-6.72-11.68-13.45-13.84c-17.07-5.47-35-5.94-52.57-8.44a141.29,141.29,0,0,1-24-5.49c-17.81-5.8-28.63-17.29-29.31-36.5-.64-18.44,6.94-33.21,23.79-41,31-14.31,62.84-13.33,93.72.4,16.48,7.32,22.91,22.76,25.48,39.82.3,2,.31,3.92-1.2,5.56-4.76,5.2-25.76,1.12-27.8-5.67-3.57-11.92-11.29-19.24-23.45-21.28-15-2.52-30.15-3.06-45.11.79-5.18,1.33-9.94,3.59-13,8.35-5.86,9.26-2.43,19.31,8.23,22.62,15.8,4.9,32.35,5.86,48.56,8.66,9.39,1.62,18.84,3.3,28,6,21.16,6.3,30.59,17.45,31.93,36.43,1.35,19.2-8.41,36.1-26.14,44.92C1119.87,1114.25,1103,1116.24,1085.65,1116Z" transform="translate(-219 -219.51)"/><path class="cls-3" d="M826.91,853.51c-3.52-.07-6.06-2.33-8.89-4q-74.65-42.94-149.27-85.95c-3.83-2.22-8.7-3.62-9.92-8.88,2.55-10.73,9.82-19.05,14.6-28.65,5.56-7.31,9.21-15.77,14.07-23.49a166.31,166.31,0,0,0,10.13-17.74c4.5-6.32,7.6-13.46,11.76-20,4.46-5.15,5.18-13.39,13-15.76,3.49,1.29,4.64,4.62,6.44,7.37,6.33,10.32,11.32,21.38,17.71,31.67,4.05,8.87,9.94,16.76,13.88,25.68,6.26,10.33,11.19,21.38,17.66,31.58,4.47,9.75,10.7,18.56,15.31,28.24,4.56,8.55,9.4,17,14.13,25.41,5.62,10,10.7,20.23,16.69,30,2.72,5.49,5.93,10.73,8.69,16.17C836.38,852,835.07,853.63,826.91,853.51Z" transform="translate(-219 -219.51)"/><path class="cls-4" d="M826.91,853.51c5.11-.07,7.49-1.6,4.28-7-3.35-5.59-6.35-11.38-9.5-17.08,1.68-7.13.61-14.36.61-21.53q.16-168.54.11-337.09c0-6.17-1-12.59,3.19-18.06,3.28-.63,6.5-2.82,9.91-.43,7.47,4.88,12,11.32,11,20.71.19,125.39,0,250.77.14,376.14C840.88,854.33,834.67,857.43,826.91,853.51Z" transform="translate(-219 -219.51)"/><path class="cls-5" d="M877.32,831.58A66.94,66.94,0,0,1,860,841.7c-5,.46-5.85-3.39-7-6.78-1-3.15-.94-6.5-.94-9.79q-.08-157,0-313.94c0-5.92.11-11.91,4.14-16.89,3-2.53,5.8-1.28,7.44,1.3,5.64,8.88,13.15,16.94,13.5,28.36-1.14,6.86-.93,13.77-.94,20.66q0,132.66-.07,265.32C876.2,817.2,877.07,824.36,877.32,831.58Z" transform="translate(-219 -219.51)"/><path class="cls-6" d="M825.6,452.78q0,182.52-.16,365.05c0,3.93,3.09,9.61-3.75,11.63l-16-29.59c1.32-6.83.78-13.75.78-20.62q.09-151.93,0-303.88c0-4.26-.34-8.57,1.36-12.65Z" transform="translate(-219 -219.51)"/><path class="cls-7" d="M877.32,831.58c-4.68-2-4.24-6.08-4.24-10.05q0-144.31.09-288.63c0-3.84,1.24-7.69,1.9-11.53a2.47,2.47,0,0,1,2.9-.24c6.77,10.51,15.52,20.07,16.23,33.54-.26,83.66,0,167.3-.11,250.94,0,6.22.51,12.53-3.13,18.13A39.82,39.82,0,0,1,877.32,831.58Z" transform="translate(-219 -219.51)"/><path class="cls-8" d="M892.88,551,877,521.37c3.47-4.55,5.69-.36,7.47,1.5a183.49,183.49,0,0,1,13.74,16.82c21.63,28.64,41.92,58.27,64.45,86.25-.64,8.3-4.6,14.87-10.67,20.35-7.24-2.45-9.38-9.43-13.29-14.86-4.38-5.71-7.09-12.45-11.72-19.35-2.18,4.1-1.46,7.65-1.46,11,0,57.41-.13,114.82.05,172.24a50,50,0,0,1-.54,8.82A42.8,42.8,0,0,1,911.45,812c-5.16,2-6.37-1.59-7.21-5.28-1-4.19-.63-8.5-.64-12.76,0-66.29-.12-132.58.1-198.88,0-12-.38-23.58-7.74-33.79C893.79,558.26,893.51,554.54,892.88,551Z" transform="translate(-219 -219.51)"/><path class="cls-9" d="M791.86,774.23l-15.68-27.72c1.25-6.82.63-13.71.63-20.56q.12-114.86.06-229.69c0-5.9-.52-11.9,2.9-17.23l14.17-8.28c6.29,4.33,5.08,11,5.09,17.1.15,52.32.08,104.65.08,157,0,38.18.16,76.35-.16,114.52C798.91,765,801.06,772.55,791.86,774.23Z" transform="translate(-219 -219.51)"/><path class="cls-10" d="M791.86,774.23c4.64-2.08,4-6.25,4-10.17q0-140.89.07-281.79a40.1,40.1,0,0,0-2-11.52l14-8c2.49,3.51,1.83,7.55,1.83,11.44q0,157.59-.1,315.17c0,3.68,2.62,9-3.9,10.54C800.54,791.63,795.4,783.36,791.86,774.23Z" transform="translate(-219 -219.51)"/><path class="cls-11" d="M859.24,493.72c-3.57,4.32-4,9.44-4,14.75q0,160,0,320.08c0,5-.22,10,4.73,13.15-3.52,4.15-9.06,4.7-13.34,7.5-4.67-1.32-3.2-5.21-3.2-8.21q-.09-181.36,0-362.73c0-2.85-.83-6,2-8.24C854.72,475.17,859,483.28,859.24,493.72Z" transform="translate(-219 -219.51)"/><path class="cls-12" d="M952.24,645.78,962.13,626c-1.14-7.79,6-12.17,7.76-18.77,2.91-6.71,7.76-12.4,10.18-19.37,3.57-7,8.78-13,11.71-20.42,4.23-5.86,4.64-14.94,13.93-16.54,3,2.92,4,6.66,4,10.68q-.13,58.88-.32,117.75c-4.64,2.91-8.11-.69-11.8-2.3-13.8-6-26.31-15-41.36-18.16C952.37,655.29,945,652.72,952.24,645.78Z" transform="translate(-219 -219.51)"/><path class="cls-13" d="M892.88,551c9.6,12.76,14.47,26.28,14.24,43.06-.94,68.94-.43,137.89-.29,206.84,0,4-2.51,9.75,4.62,11.09-6.07,5.24-13.56,8-20.49,11.76q0-131.13-.09-262.27C890.87,557.82,890.91,554.24,892.88,551Z" transform="translate(-219 -219.51)"/><path class="cls-14" d="M779.77,479q.15,129.9.27,259.81c0,3.09,1,6.92-3.86,7.67L758.47,714.9c2.32-6.63,2.66-13.5,2.66-20.44,0-60.9-.1-121.79.09-182.69,0-7.24-2.16-14.34-.85-21.59Z" transform="translate(-219 -219.51)"/><path class="cls-2" d="M1668.37,652.17c2.07-7.12-3.53-16.07,3.33-20.77,9.92-6.79,20.3-16.95,31.79-16.5s22.9,9,31.37,17.31c6.93,6.76,2,18.21,2.55,27.54.27,4.6,2.42,10.54-2.87,13.66-10.45,6.13-20.72,17.2-31.78,16.39s-22-9.87-31.55-17.21C1665.05,667.86,1670.42,658.8,1668.37,652.17Z" transform="translate(-219 -219.51)"/><path class="cls-12" d="M1009.32,746.47c.55,6.74-3.15,11.29-8.41,14.37-13.5,7.93-27.23,15.47-40.86,23.17-5.79,2.16-6.61-2.53-7.87-6-1.35-3.73-1-7.76-1-11.69q-.06-43.73,0-87.44c0-5.57,0-11.17,2.38-16.37,2-4.08,4.77-3.92,7.71-1a35.77,35.77,0,0,1,7,9.38c10.8,21.65,23.94,42,35.79,63A59.42,59.42,0,0,1,1009.32,746.47Z" transform="translate(-219 -219.51)"/><path class="cls-15" d="M972,608.26q-4.95,8.9-9.89,17.78c-6.69-.8-8.24-7.15-11.39-11.31-21.89-29-43.29-58.28-65.11-87.3-2-2.63-3.6-7.1-8.59-6.06h-2a107.74,107.74,0,0,0-15.83-27.65c-3.87-8.34-7.64-16.73-13.85-23.7-2.13-6.54-6.28-11.95-9.88-17.67,13.63,3.13,24.09,12.25,35.87,18.88,13.71,23.21,31.22,43.7,47.06,65.37C936,560.68,953.27,585,972,608.26Z" transform="translate(-219 -219.51)"/><path class="cls-16" d="M760.37,490.18c3.27,4.81,4,10.13,3.94,15.88q-.18,97.44-.11,194.87c0,5.32,1.51,11.5-5.73,14l-13.9-25.67c1.62-6.15.6-12.42.62-18.61q.18-79.92.06-159.83c0-4.27-.38-8.57,1.28-12.67Q753.45,494.15,760.37,490.18Z" transform="translate(-219 -219.51)"/><path class="cls-17" d="M972,608.26c-4.21-.19-6-3.32-8.17-6.3q-44.19-59.55-88.61-119c-2.65-3.55-4.64-7.17-3.86-11.78,15.49,8.09,30.69,16.67,45.31,26.25,18.83,29.65,41,56.86,61.76,85.15a24.79,24.79,0,0,1,3.47,5.88C980.63,596.1,974.39,601.22,972,608.26Z" transform="translate(-219 -219.51)"/><path class="cls-18" d="M746.53,498.12c2.42,3.51,1.87,7.52,1.87,11.42q0,84.52-.12,169c0,3.67,2.69,8.94-3.71,10.65l-17.7-31.61c2.12-6.31,2.64-12.82,2.64-19.43q-.06-55.23,0-110.45c0-6.3-1.11-12.42-1.68-18.62Z" transform="translate(-219 -219.51)"/><path class="cls-19" d="M956.2,659.62c-4.25,33.18-.94,66.51-2,99.75-.16,5.22-.18,10.47,0,15.69.17,4,.68,8,5.75,9-6.46,5.35-14.3,8.3-21.51,12.35-4.8-3.16-5.13-8.21-5.16-13.11-.26-46.18-.39-92.36.15-138.54.06-5.34-1.33-13.52,8.82-12.74,2.16,5.41,6.23,9.47,9.89,13.81-4.24,5.81,2.52,8,4,11.87.69.44.92.87.69,1.31S956.44,659.62,956.2,659.62Z" transform="translate(-219 -219.51)"/><path class="cls-20" d="M663.15,546.78c14.44-10.38,30.27-18.41,45.78-27,5.65.68,6.64,5,6.71,9.36.46,28.93.4,57.87,0,86.81,0,3.27-.53,6.62-3.65,8.72a5.61,5.61,0,0,1-4.9-.48c-3.71-2.4-6-6-7.82-9.88C688.52,591.12,675.38,569.2,663.15,546.78Z" transform="translate(-219 -219.51)"/><path class="cls-21" d="M708.9,624.06c4.86-.74,3.85-4.55,3.85-7.64,0-29.11,0-58.21.1-87.31,0-3.86-.54-7.08-3.92-9.32,6.05-4,12.13-8,18.94-10.67,4.58,1.81,4.73,5.65,4.73,9.76q-.08,63.84-.06,127.69c0,4.53.3,9.46-5.67,11l-4.34-7.8C715.46,642.57,709.18,634.9,708.9,624.06Z" transform="translate(-219 -219.51)"/><path class="cls-22" d="M942.35,632c-6.1,1.4-5.9,6.34-5.9,10.9q-.09,71,.06,142c0,3.84,1.32,7.68,2,11.53a41.55,41.55,0,0,1-13.47,7.74c-3.72-2.61-2.46-6.54-2.46-10q-.11-90.24,0-180.47c0-2.83-2.23-7.58,2.48-8.15,3.43-.41,5.15,3.75,6.26,6.81C934,619.48,938.41,625.58,942.35,632Z" transform="translate(-219 -219.51)"/><path class="cls-23" d="M708.9,624.06q6.81,12.88,13.63,25.75c-5.75,3.89-6.36,11.57-11.72,15.75C696,655.77,679.55,649.17,664,640.9c-2.87-1.53-6.11-2.43-8.37-5V600.4c4.88-1.86,8.87.84,12.85,2.79,12.81,6.28,25.59,12.62,38.4,18.91Z" transform="translate(-219 -219.51)"/><path class="cls-24" d="M981.92,588.51c-11.86-8.88-18-22.3-26.83-33.62-11.65-15-22.67-30.49-34-45.72-2.62-3.51-4.82-7.08-4.38-11.69,15.13,7.39,29.47,16.16,43.78,25,8.95,17,22,31,33.29,46.31C990.78,575.92,986.18,582.12,981.92,588.51Z" transform="translate(-219 -219.51)"/><path class="cls-25" d="M956.2,659.62v-2c6.22-.88,11.45,1.75,16.83,4.35,12.09,5.83,23.61,12.88,36.34,17.37l0,67.1c-15.15-23.38-29-47.51-41.88-72.21A52.49,52.49,0,0,0,956.2,659.62Z" transform="translate(-219 -219.51)"/><path class="cls-26" d="M706.83,622.1c-7.12.93-12.45-3.52-18.33-6.21-11-5-22-10.31-32.92-15.49-.12-13-.32-25.93-.32-38.9,0-6.21,2.48-11.3,7.88-14.72,8,4.46,9.9,13.3,14,20.39C687.46,585.23,697,603.76,706.83,622.1Z" transform="translate(-219 -219.51)"/><path class="cls-27" d="M655.58,635.92c17.78,4.68,32.73,15.48,49.32,22.75,3.06,1.33,5.93,2.89,5.91,6.89-3.59,6.8-5.68,14.5-11.86,19.76-13.14-6.48-25.86-13.81-39.34-19.61a8.31,8.31,0,0,1-4-4.09Z" transform="translate(-219 -219.51)"/><path class="cls-28" d="M655.58,661.62Q673.3,670,691,678.38c3.32,1.56,6.32,3.46,7.94,6.94-1.51,6.91-5.28,12.57-9.9,17.76-12.75-1.89-23.53-7.94-33.47-15.78Z" transform="translate(-219 -219.51)"/><path class="cls-29" d="M993.76,568.76c-3.79-.11-5.68-2.75-7.69-5.46q-10.82-14.59-21.85-29c-2.69-3.52-4.59-7.21-3.75-11.81,13.11,7.41,26.25,14.79,39.33,22.26,2.55,1.45,5.06,3.1,5.91,6.23C999.71,555.53,997.18,562.44,993.76,568.76Z" transform="translate(-219 -219.51)"/><path class="cls-30" d="M655.58,687.3l33.47,15.78c-3.89,8.33-7.66,16.72-13.86,23.71a75.93,75.93,0,0,1-19.61-9.89Z" transform="translate(-219 -219.51)"/><path class="cls-31" d="M1303,935.17a28.79,28.79,0,0,1-29,28.62c-15.76-.2-28.93-13.54-28.75-29.14a28.89,28.89,0,0,1,29.29-28.42A28.21,28.21,0,0,1,1303,935.17Z" transform="translate(-219 -219.51)"/><path class="cls-32" d="M655.58,716.9a30.82,30.82,0,0,1,19.61,9.89c-5,9.6-9.57,19.41-16.36,27.94C651.77,742.63,656.29,729.54,655.58,716.9Z" transform="translate(-219 -219.51)"/><path class="cls-33" d="M1326.46,655.69c8.55,27.82-8.13,39.21-29.33,52.23-21.76,13.37-37.42,13.15-59.81.37-23-13.11-34.86-26.71-29.93-53.25,1.47-7.94.78-16.44.06-24.59-.62-7.11,2.53-10.7,8.29-13.87q22-12.11,43.55-25.09c5.42-3.29,9.77-3.66,15.34-.26q22.3,13.59,45.21,26.15c5,2.76,7,6,6.73,11.69C1326.14,637.93,1326.46,646.81,1326.46,655.69Z" transform="translate(-219 -219.51)"/><path class="cls-34" d="M1250.44,934.81a23.9,23.9,0,0,1,23.48-24.16c13.15-.28,24.66,11.08,24.62,24.3s-11.6,24.53-24.74,24.27C1261,959,1250.41,947.87,1250.44,934.81Z" transform="translate(-219 -219.51)"/><path class="cls-35" d="M1263.2,934.28a26.91,26.91,0,0,1,0-4.92c.66-3.56-2.3-9,2.61-10.29,5.54-1.42,11.85-1.89,17.16,1.8,2.25,1.57,4.22,4.91,2.86,6.78-4.79,6.56-1,12.67-.05,18.94.3,1.93,1.17,4-1.76,4.6a3.59,3.59,0,0,1-4.46-2.85,43.71,43.71,0,0,1-.85-5.84c-.37-3.29-2.38-4.32-5.44-4.31s-3.47,2-3.82,4.53c-.4,2.89,1.92,8-2.83,8-5.56,0-2.93-5.43-3.39-8.56A54.47,54.47,0,0,1,1263.2,934.28Z" transform="translate(-219 -219.51)"/><path class="cls-36" d="M1273.53,924.13c2.79-.08,5.27.37,5.47,3.85s-1.94,4.46-4.86,4.6c-2.5.12-4.5-.52-4.73-3.48S1270,924,1273.53,924.13Z" transform="translate(-219 -219.51)"/></svg>