<svg id="Capa_2" data-name="Capa 2" xmlns="http://www.w3.org/2000/svg" viewBox="0 0 2096 1081"><defs><style>.cls-1{fill:#8892bd;}.cls-2{fill:#232531;}</style></defs><ellipse class="cls-1" cx="1048" cy="540.5" rx="1048" ry="540.5"/><path class="cls-2" d="M614,792c-99,1-202,0-202,0L298,1368l135,1,27-154,168-2s184-10,219-232C863,788,713,791,614,792Zm80,224c-14,98-134,93-134,93l-70-3,37-208H649S735,908,694,1016Z" transform="translate(-2 -509.5)"/><path class="cls-2" d="M1575.22,794c-99,1-202,0-202,0l-114,576,135,1,27-154,168-2s184-10,219-232C1824.22,790,1674.22,793,1575.22,794Zm80,224c-14,98-134,93-134,93l-70-3,37-208h122S1696.22,910,1655.22,1018Z" transform="translate(-2 -509.5)"/><path class="cls-2" d="M960,1211l-135,4L939,638h135l-27,154,142-1s143,4,127,122-55,300-55,300l-134-2,53-285s3-23-32-32c-41-2-123-1-123-1Z" transform="translate(-2 -509.5)"/></svg>