<svg id="Capa_1" data-name="Capa 1" xmlns="http://www.w3.org/2000/svg" xmlns:xlink="http://www.w3.org/1999/xlink" viewBox="0 0 2059.98 2058.08"><defs><style>.cls-1{fill:#4ce0e0;}.cls-2{fill:url(#Degradado_sin_nombre_37);}.cls-3{fill:url(#Degradado_sin_nombre_52);}</style><linearGradient id="Degradado_sin_nombre_37" x1="489.17" y1="393.44" x2="762.06" y2="775.49" gradientUnits="userSpaceOnUse"><stop offset="0.34" stop-color="#418ab7"/><stop offset="0.99" stop-color="#256a94"/></linearGradient><linearGradient id="Degradado_sin_nombre_52" x1="1607.26" y1="1734.04" x2="1322.23" y2="1297.41" gradientUnits="userSpaceOnUse"><stop offset="0.01" stop-color="#fccc39"/><stop offset="1" stop-color="#c69e2b"/></linearGradient></defs><path class="cls-1" d="M1050,1050" transform="translate(-20.01 -20.96)"/><path class="cls-1" d="M1050,1050" transform="translate(-20.01 -20.96)"/><path class="cls-2" d="M1359,117.83A328.58,328.58,0,0,0,1125.14,21H974.86A330.73,330.73,0,0,0,644.12,351.69V570.11H1050v80H604l-257.7,3.5A330.73,330.73,0,0,0,20,988.8l2,150.27a330.73,330.73,0,0,0,330.61,326.26c1.51,0,3.05,0,4.57,0L604.94,1462c2.52-37.17,12.78-121.09,54.42-205.92,51.06-104,160.28-228,390.64-228h1.92c92.34-.29,170.84-21.76,233.31-63.82,49.8-33.53,89.9-80.35,119.18-139.18,50.71-101.87,51.47-205.66,51.47-206.68V351.69A328.56,328.56,0,0,0,1359,117.83ZM837.94,430.63a100,100,0,1,1,100-100A100,100,0,0,1,837.94,430.63Z" transform="translate(-20.01 -20.96)"/><path class="cls-3" d="M2080,1111.2l-2-150.27a330.73,330.73,0,0,0-330.61-326.26c-1.51,0-3,0-4.57,0l-247.7,3.35c-2.54,36.86-12.79,119.66-54.18,203.46C1390,944.42,1281.36,1067.24,1052.14,1068H1050c-92.77,0-171.63,21.49-234.38,63.87-50,33.8-90.34,81.11-119.77,140.6-51,103-51.73,208.18-51.73,209.22v266.62A330.73,330.73,0,0,0,974.86,2079h150.28a330.73,330.73,0,0,0,330.74-330.73V1531.17H1094.79v-80h361.09v-.74l297.86-4A330.73,330.73,0,0,0,2080,1111.2Zm-817.9,586a100,100,0,1,1-100,100A100,100,0,0,1,1262.06,1697.21Z" transform="translate(-20.01 -20.96)"/></svg>