<svg xmlns="http://www.w3.org/2000/svg" viewBox="0 0 2076.59 1832.2"><defs><style>.cls-1{fill:#61d9fa;}.cls-2{fill:#3b7d8c;}</style></defs><g id="Capa_1" data-name="Capa 1"><path class="cls-1" d="M1690.76,688.42a20,20,0,0,1-11.44-21.22c25.74-167.77,55.76-502-172.32-527.2-201.79-22.33-390.3,133.78-439.56,178.35a20,20,0,0,1-25.82.84C867,180.06,654.32,86,511,165c-142.32,78.42-102.79,361.2-89.24,506.17A20,20,0,0,1,410.54,691C155.89,814,30.68,859.77,14.18,1050.85a20.67,20.67,0,0,1-.82,4.2c-50.69,167.7,321.19,327,403,359.82a20,20,0,0,1,12.17,22.53C411.51,1521.15,347,1899.25,554,1949c219.9,52.85,397.93-100.94,486.19-165.48a20,20,0,0,1,25.71,1.67c63.84,61.45,352.92,251.24,511.1,157.81,164.92-97.41,117.77-389.22,106.13-521.09a20,20,0,0,1,11.38-19.82C1942.46,1284.77,2075.16,1217,2085,1035,2094.56,858.17,1799,738,1690.76,688.42ZM1131.33,413.66c185-182.46,315.61-192,365.72-184.5a20.09,20.09,0,0,1,8.85,3.58c124.4,90.73,74.69,358.26,58.47,430.89a20,20,0,0,1-22.72,15.4L1284,637.29a20,20,0,0,1-12.82-7.76L1129.37,439.87A20,20,0,0,1,1131.33,413.66Zm-555.6,892.92,38-110.07c5.59-16.22,27.67-18.34,36.23-3.47l74,128.42a20,20,0,0,1-20.56,29.72l-112-18.35A20,20,0,0,1,575.73,1306.58Zm15.65-537.94,111.46-20.78c16.7-3.11,29.43,14.7,21.08,29.49l-71.78,127.2c-8.36,14.81-30.22,13.09-36.16-2.85L576.31,795.29A20,20,0,0,1,591.38,768.64Zm92.93,291.14a20,20,0,0,1,.2-19.45L857.25,737.1A20,20,0,0,1,874.62,727h351a20,20,0,0,1,17.18,9.76l180.1,302a20,20,0,0,1,0,20.42l-180.15,305a20,20,0,0,1-17.22,9.83H866.9a20,20,0,0,1-17.58-10.45Zm711.33-311L1509,771.39A20,20,0,0,1,1523.78,798l-39,104.52a20,20,0,0,1-36,3.09l-74.29-127.18C1365.75,763.53,1378.72,745.34,1395.64,748.73Zm-20.05,577.66,75-133.35c8.39-14.91,30.42-13.09,36.24,3l41,113.47a20,20,0,0,1-15.43,26.52l-116,19.87A20,20,0,0,1,1375.59,1326.39ZM1062.75,521.18l74.53,81.31c11.76,12.82,2.66,33.51-14.74,33.51H982.71a20,20,0,0,1-15.59-32.52l65.29-81.31A20,20,0,0,1,1062.75,521.18ZM595.26,229.67A19.68,19.68,0,0,1,605.75,227c38,.94,202.5,20.45,362.59,189.43a20,20,0,0,1,1.23,26L823.74,629.91a20,20,0,0,1-12.34,7.42L573.21,679a20,20,0,0,1-22.58-13.88C528.82,593.19,454.51,312.45,595.26,229.67ZM461.18,1297c-73-21.32-345.58-109.92-348.18-245,0,0-14.56-159.15,347.33-250.89a20,20,0,0,1,23.33,11.67c36.15,86.2,78.66,197.27,89.64,226.12a20,20,0,0,1,0,14.2l-87.83,231.8A20,20,0,0,1,461.18,1297Zm509.19,394.15C740.62,1910,604.44,1883.44,576,1855c-131.36-122.72-49.87-356.72-25.31-418a20,20,0,0,1,22-12.26l223.19,39a20,20,0,0,1,11.8,6.75L971.85,1663.7A20,20,0,0,1,970.37,1691.16Zm95-104.09a20,20,0,0,1-30.93.17l-74.54-89.83a20,20,0,0,1,15.22-32.77l148.45-1.28c16.91-.14,26.36,19.47,15.7,32.6Zm447.06,282.85a20.14,20.14,0,0,1-10.49,5.21c-63.37,10.77-168.83-4.66-366.65-187.72a20,20,0,0,1-2.32-26.8l144.14-189.18a20,20,0,0,1,12.89-7.65l255.87-39.16a20,20,0,0,1,22.27,14.32C1586.8,1504.72,1643.43,1745.71,1512.42,1869.92Zm474.4-814.54c-4.83,47.79-107.5,188.33-335.22,243.46a20,20,0,0,1-21.45-8.46c-58.53-89.55-93.53-209.2-101.43-238a19.93,19.93,0,0,1,.63-12.49l88.25-228.37a20,20,0,0,1,23.9-12.09c68.16,18.44,313.71,95.13,345,250.14A19,19,0,0,1,1986.82,1055.38Z" transform="translate(-8.63 -136.21)"/></g><g id="Capa_2" data-name="Capa 2"><path class="cls-2" d="M1087,775.13l11.73-22.7s1.5-1.46,0-4.36c-3-1.45-4.5,2.9-4.5,2.9l-12.56,21.89a130.62,130.62,0,0,0-32.31-7.79c-10.73-.52-24.74,2.14-38.22,8.08L998.24,750.7s-1.5-4.35-4.5-2.9c-1.5,2.9,0,4.35,0,4.35l12.13,23.48c-22.1,11.31-41.41,31.77-40.52,62h163.5S1131.85,795.9,1087,775.13Zm-77.91,34.26a6.76,6.76,0,1,1,7-6.76A6.87,6.87,0,0,1,1009.08,809.39Zm75.36-.4a6.77,6.77,0,1,1,7-6.76A6.88,6.88,0,0,1,1084.44,809Z" transform="translate(-8.63 -136.21)"/><rect class="cls-2" x="913.3" y="705.16" width="35.59" height="108.34" rx="1.42"/><rect class="cls-2" x="1127.71" y="705.14" width="35.59" height="108.34" rx="1.42"/><path class="cls-2" d="M1130.75,844l-163.83-.45s-.36,100.08,0,119.66c8.62,16,17.89,14.28,17.89,14.28h16.33v41.19c0,9,7.6,16.35,16.89,16.35h0c9.3,0,16.9-7.35,16.9-16.35V977.46h25v40.88c0,9,7.6,16.35,16.89,16.35h0c9.3,0,16.9-7.36,16.9-16.35V977.46h4.53s5.84-.19,16.44-.57c13-1.66,16.33-14.79,16.33-14.79Z" transform="translate(-8.63 -136.21)"/><path class="cls-2" d="M1103.76,1326.55h-1c-8.67-.24-16.51-3.61-24.46-6.56a65.72,65.72,0,0,0-22.14-4.24,67,67,0,0,0-24.91,4.78c-4.46,1.7-8.9,3.42-13.49,4.75-2.7.79-5.48.72-8.18,1.27H1002c-.77-.5-1.63-.13-2.44-.25-7-.22-12.47-3.75-17.75-7.85-6.85-5.32-12.07-12.14-17.66-18.66-6.09-7.11-10.94-15-15.93-22.88-6.39-10.08-10.73-21.05-15-32.11a134.68,134.68,0,0,1-7.5-31c-.34-2.57-.1-5.2-.62-7.77v-1.91c.31-.29.22-.67.24-1v-.82c0-.36.07-.74-.24-1v-1.44a18.8,18.8,0,0,0,0-6.69v-2.39c.31-.29.22-.67.24-1v-.82c0-.36.07-.74-.24-1V1186a90.48,90.48,0,0,1,3.5-20.86c5.42-17.59,14.56-32.74,29.92-43.4,11.13-7.72,23.65-11.87,37.14-13.4,10.62-1.2,20.54,1.5,30.43,4.6,6.6,2.08,13,4.7,19.69,6.63a20.65,20.65,0,0,0,12-.2c9.7-2.85,19.22-6.29,28.94-9.09a76.16,76.16,0,0,1,37.55-1,74,74,0,0,1,32.28,15.25,53.71,53.71,0,0,1,9.14,9.73c1.47,2,1.35,2.56-.68,4.06-4.68,3.43-9.64,6.5-13.63,10.81a113,113,0,0,0-7.37,9.38c-6.16,8.28-9,17.77-9.69,27.82-.81,12.14,1.26,23.78,7.73,34.41,3.33,5.46,6.65,10.92,11.44,15.22,5.59,5,11.57,9.5,18.55,12.45,3,1.27,3.28,1.77,2.17,4.87-2.06,5.79-5,11.17-7.55,16.77a106.18,106.18,0,0,1-7.84,15c-4.81,7.32-9.36,14.94-15.58,21.12-5.83,5.79-11.33,12.09-18.85,16-5,2.63-10.2,4.44-16,4.17C1106.82,1326.44,1105.26,1326,1103.76,1326.55Z" transform="translate(-8.63 -136.21)"/><path class="cls-2" d="M925.05,1193.13a10,10,0,0,1,0,6.69Z" transform="translate(-8.63 -136.21)"/><path class="cls-2" d="M1108.56,1326.14a1.39,1.39,0,0,0,0,.41h-4.77C1105.28,1325.53,1107,1326.27,1108.56,1326.14Z" transform="translate(-8.63 -136.21)"/><path class="cls-2" d="M999.59,1326.55a.44.44,0,0,0-.05-.43,2.87,2.87,0,0,1,2.44.43Z" transform="translate(-8.63 -136.21)"/><path class="cls-2" d="M925.05,1187.87c.59.11.45.54.4.94-.13.23-.26.23-.4,0Z" transform="translate(-8.63 -136.21)"/><path class="cls-2" d="M925.05,1188.82a2.64,2.64,0,0,1,.4,0v1c-.13.24-.26.24-.4,0Z" transform="translate(-8.63 -136.21)"/><path class="cls-2" d="M925.05,1189.78l.4,0c.08.41.09.8-.4,1Z" transform="translate(-8.63 -136.21)"/><path class="cls-2" d="M925.05,1201.26c.47.18.47.56.4,1-.15.2-.28.19-.4,0Z" transform="translate(-8.63 -136.21)"/><path class="cls-2" d="M925.05,1202.21l.4,0c0,.32,0,.64,0,1s-.27.18-.39,0Z" transform="translate(-8.63 -136.21)"/><path class="cls-2" d="M925.05,1203.17l.39,0c.07.39.21.82-.39.94Z" transform="translate(-8.63 -136.21)"/><path class="cls-2" d="M1112.35,1046.22a64.29,64.29,0,0,1-15.45,39,69,69,0,0,1-8.72,8.37c-8.82,7.29-18.55,13-30.16,14.1-9.51.89-8.38,1.22-7.86-7.13a60.52,60.52,0,0,1,15-36.7,69.22,69.22,0,0,1,43.8-23.65c3.22-.45,3.24-.4,3.35,2.94C1112.37,1044.15,1112.35,1045.19,1112.35,1046.22Z" transform="translate(-8.63 -136.21)"/></g></svg>