<svg id="Capa_2" data-name="Capa 2" xmlns="http://www.w3.org/2000/svg" viewBox="0 0 2076.59 1832.2"><defs><style>.cls-1{fill:none;}.cls-2{fill:#61d9fa;}.cls-3{fill:#4295a8;}</style></defs><path class="cls-1" d="M1103.13,1169.86a219.21,219.21,0,0,0,13.45-36.28,253.81,253.81,0,0,0-51.58-5.7v85.6C1078.73,1207.78,1092.17,1192.57,1103.13,1169.86Z" transform="translate(-8.63 -136.21)"/><path class="cls-1" d="M1123.08,1104.43a347,347,0,0,0,4.36-39.43H1065v33c7.29.06,14.56.37,21.8,1A284.35,284.35,0,0,1,1123.08,1104.43Z" transform="translate(-8.63 -136.21)"/><path class="cls-1" d="M1123.39,986.47a288.46,288.46,0,0,1-36.86,7.42q-10.74,1.43-21.53,2V1035h62.88A354,354,0,0,0,1123.39,986.47Z" transform="translate(-8.63 -136.21)"/><path class="cls-1" d="M962.2,1147.34a290.11,290.11,0,0,0-43.11,20.92,176.86,176.86,0,0,0,80.38,50.86c-8.7-9.65-16.65-21.78-23.62-36.23A243.47,243.47,0,0,1,962.2,1147.34Z" transform="translate(-8.63 -136.21)"/><path class="cls-1" d="M1035,966V878.62c-11.61,7.21-22.77,21.13-32.13,40.52A223.41,223.41,0,0,0,988.44,959c1.09.27,2.18.54,3.29.79A262.48,262.48,0,0,0,1035,966Z" transform="translate(-8.63 -136.21)"/><path class="cls-1" d="M990.67,1137.91a215.26,215.26,0,0,0,12.2,31.95c9.36,19.39,20.52,33.31,32.13,40.52v-81a280.69,280.69,0,0,0-41.94,7.83Z" transform="translate(-8.63 -136.21)"/><path class="cls-1" d="M983.68,1108.71l.43-.12a307.56,307.56,0,0,1,50.89-9.27V1065H978.56A342.69,342.69,0,0,0,983.68,1108.71Z" transform="translate(-8.63 -136.21)"/><path class="cls-1" d="M1152.13,1112.25a316.56,316.56,0,0,1,52.6,22.6,175.27,175.27,0,0,0,21.13-69.85h-68.38A374.56,374.56,0,0,1,1152.13,1112.25Z" transform="translate(-8.63 -136.21)"/><path class="cls-1" d="M616,901.7c5.94,15.94,27.8,17.66,36.16,2.85l71.78-127.2c8.35-14.79-4.38-32.6-21.08-29.49L591.38,768.64a20,20,0,0,0-15.07,26.65Z" transform="translate(-8.63 -136.21)"/><path class="cls-1" d="M1130.15,1182.89a158.14,158.14,0,0,1-21.22,33.48,177.15,177.15,0,0,0,79.06-56.46,290,290,0,0,0-42.51-18.35A248.9,248.9,0,0,1,1130.15,1182.89Z" transform="translate(-8.63 -136.21)"/><path class="cls-1" d="M591.41,1332.83l112,18.35a20,20,0,0,0,20.56-29.72l-74-128.42c-8.56-14.87-30.64-12.75-36.23,3.47l-38,110.07A20,20,0,0,0,591.41,1332.83Z" transform="translate(-8.63 -136.21)"/><path class="cls-1" d="M1271.16,629.53a20,20,0,0,0,12.82,7.76L1541.65,679a20,20,0,0,0,22.72-15.4c16.22-72.63,65.93-340.16-58.47-430.89a20.09,20.09,0,0,0-8.85-3.58c-50.11-7.52-180.77,2-365.72,184.5a20,20,0,0,0-2,26.21Z" transform="translate(-8.63 -136.21)"/><path class="cls-1" d="M1145.54,947.64a307.63,307.63,0,0,0,34.79-16.53,177.16,177.16,0,0,0-60.14-43,177.54,177.54,0,0,1,10,18A248.86,248.86,0,0,1,1145.54,947.64Z" transform="translate(-8.63 -136.21)"/><path class="cls-1" d="M1103.13,919.14c-11-22.71-24.4-37.92-38.13-43.62V966a253.56,253.56,0,0,0,52.08-8.78A221.44,221.44,0,0,0,1103.13,919.14Z" transform="translate(-8.63 -136.21)"/><path class="cls-1" d="M1157.89,1035h68a175.27,175.27,0,0,0-27.07-79.84,333.84,333.84,0,0,1-46.58,22A382.64,382.64,0,0,1,1157.89,1035Z" transform="translate(-8.63 -136.21)"/><path class="cls-1" d="M982.29,988.41a355,355,0,0,0-4.17,46.59H1035V996a289.63,289.63,0,0,1-51.34-7.26Z" transform="translate(-8.63 -136.21)"/><path class="cls-1" d="M807.68,1470.51a20,20,0,0,0-11.8-6.75l-223.19-39a20,20,0,0,0-22,12.26c-24.56,61.28-106.05,295.28,25.31,418,28.44,28.44,164.62,55,394.37-163.84a20,20,0,0,0,1.48-27.46Z" transform="translate(-8.63 -136.21)"/><path class="cls-1" d="M573.3,1038.9c-11-28.85-53.49-139.92-89.64-226.12a20,20,0,0,0-23.33-11.67C98.44,892.85,113,1052,113,1052c2.6,135.09,275.16,223.69,348.18,245a20,20,0,0,0,24.3-12.11l87.83-231.8A20,20,0,0,0,573.3,1038.9Z" transform="translate(-8.63 -136.21)"/><path class="cls-1" d="M1123.56,1463.36l-148.45,1.28a20,20,0,0,0-15.22,32.77l74.54,89.83a20,20,0,0,0,30.93-.17l73.9-91.11C1149.92,1482.83,1140.47,1463.22,1123.56,1463.36Z" transform="translate(-8.63 -136.21)"/><path class="cls-1" d="M1641.5,799.46a20,20,0,0,0-23.9,12.09l-88.25,228.37a19.93,19.93,0,0,0-.63,12.49c7.9,28.77,42.9,148.42,101.43,238a20,20,0,0,0,21.45,8.46c227.72-55.13,330.39-195.67,335.22-243.46a19,19,0,0,0-.29-5.78C1955.21,894.59,1709.66,817.9,1641.5,799.46Z" transform="translate(-8.63 -136.21)"/><path class="cls-1" d="M975.85,906.11A174.47,174.47,0,0,1,988,884.77a177,177,0,0,0-68.74,46.83,262.79,262.79,0,0,0,40.51,18.74A251.6,251.6,0,0,1,975.85,906.11Z" transform="translate(-8.63 -136.21)"/><path class="cls-1" d="M573.21,679,811.4,637.33a20,20,0,0,0,12.34-7.42l145.83-187.5a20,20,0,0,0-1.23-26C808.25,247.43,643.75,227.92,605.75,227a19.68,19.68,0,0,0-10.49,2.69c-140.75,82.78-66.44,363.52-44.63,435.44A20,20,0,0,0,573.21,679Z" transform="translate(-8.63 -136.21)"/><path class="cls-1" d="M1545.86,1424.62,1290,1463.78a20,20,0,0,0-12.89,7.65L1133,1660.61a20,20,0,0,0,2.32,26.8c197.82,183.06,303.28,198.49,366.65,187.72a20.14,20.14,0,0,0,10.49-5.21c131-124.21,74.38-365.2,55.71-431A20,20,0,0,0,1545.86,1424.62Z" transform="translate(-8.63 -136.21)"/><path class="cls-1" d="M948.52,1065H874.14a175.34,175.34,0,0,0,26.68,79.22A314.74,314.74,0,0,1,954.94,1118,372.93,372.93,0,0,1,948.52,1065Z" transform="translate(-8.63 -136.21)"/><path class="cls-1" d="M866.9,1374h358.69a20,20,0,0,0,17.22-9.83l180.15-305a20,20,0,0,0,0-20.42l-180.1-302a20,20,0,0,0-17.18-9.76h-351a20,20,0,0,0-17.37,10.1L684.51,1040.33a20,20,0,0,0-.2,19.45l165,303.77A20,20,0,0,0,866.9,1374Zm177.89-530.43A59.09,59.09,0,0,1,1053,843a60.43,60.43,0,0,1,10.68,1c107.51,7.07,192.82,96.77,192.82,206,0,113.86-92.64,206.5-206.5,206.5S843.5,1163.86,843.5,1050C843.5,937.88,933.32,846.34,1044.79,843.57Z" transform="translate(-8.63 -136.21)"/><path class="cls-1" d="M953.31,979.93a287.7,287.7,0,0,1-52.42-24.26A175.38,175.38,0,0,0,874.14,1035h74A382.62,382.62,0,0,1,953.31,979.93Z" transform="translate(-8.63 -136.21)"/><path class="cls-1" d="M982.71,636h139.83c17.4,0,26.5-20.69,14.74-33.51l-74.53-81.31a20,20,0,0,0-30.34,1l-65.29,81.31A20,20,0,0,0,982.71,636Z" transform="translate(-8.63 -136.21)"/><path class="cls-1" d="M1396.4,1355.91l116-19.87a20,20,0,0,0,15.43-26.52l-41-113.47c-5.82-16.1-27.85-17.92-36.24-3l-75,133.35A20,20,0,0,0,1396.4,1355.91Z" transform="translate(-8.63 -136.21)"/><path class="cls-1" d="M1484.75,902.52l39-104.52A20,20,0,0,0,1509,771.39l-113.33-22.66c-16.92-3.39-29.89,14.8-21.19,29.7l74.29,127.18A20,20,0,0,0,1484.75,902.52Z" transform="translate(-8.63 -136.21)"/><path class="cls-2" d="M1690.76,688.42a20,20,0,0,1-11.44-21.22c25.74-167.77,55.76-502-172.32-527.2-201.79-22.33-390.3,133.78-439.56,178.35a20,20,0,0,1-25.82.84C867,180.06,654.32,86,511,165c-142.32,78.42-102.79,361.2-89.24,506.17A20,20,0,0,1,410.54,691C155.89,814,30.68,859.77,14.18,1050.85a20.67,20.67,0,0,1-.82,4.2c-50.69,167.7,321.19,327,403,359.82a20,20,0,0,1,12.17,22.53C411.51,1521.15,347,1899.25,554,1949c219.9,52.85,397.93-100.94,486.19-165.48a20,20,0,0,1,25.71,1.67c63.84,61.45,352.92,251.24,511.1,157.81,164.92-97.41,117.77-389.22,106.13-521.09a20,20,0,0,1,11.38-19.82C1942.46,1284.77,2075.16,1217,2085,1035,2094.56,858.17,1799,738,1690.76,688.42ZM1131.33,413.66c185-182.46,315.61-192,365.72-184.5a20.09,20.09,0,0,1,8.85,3.58c124.4,90.73,74.69,358.26,58.47,430.89a20,20,0,0,1-22.72,15.4L1284,637.29a20,20,0,0,1-12.82-7.76L1129.37,439.87A20,20,0,0,1,1131.33,413.66Zm-555.6,892.92,38-110.07c5.59-16.22,27.67-18.34,36.23-3.47l74,128.42a20,20,0,0,1-20.56,29.72l-112-18.35A20,20,0,0,1,575.73,1306.58Zm15.65-537.94,111.46-20.78c16.7-3.11,29.43,14.7,21.08,29.49l-71.78,127.2c-8.36,14.81-30.22,13.09-36.16-2.85L576.31,795.29A20,20,0,0,1,591.38,768.64Zm92.93,291.14a20,20,0,0,1,.2-19.45L857.25,737.1A20,20,0,0,1,874.62,727h351a20,20,0,0,1,17.18,9.76l180.1,302a20,20,0,0,1,0,20.42l-180.15,305a20,20,0,0,1-17.22,9.83H866.9a20,20,0,0,1-17.58-10.45Zm711.33-311L1509,771.39A20,20,0,0,1,1523.78,798l-39,104.52a20,20,0,0,1-36,3.09l-74.29-127.18C1365.75,763.53,1378.72,745.34,1395.64,748.73Zm-20.05,577.66,75-133.35c8.39-14.91,30.42-13.09,36.24,3l41,113.47a20,20,0,0,1-15.43,26.52l-116,19.87A20,20,0,0,1,1375.59,1326.39ZM1062.75,521.18l74.53,81.31c11.76,12.82,2.66,33.51-14.74,33.51H982.71a20,20,0,0,1-15.59-32.52l65.29-81.31A20,20,0,0,1,1062.75,521.18ZM595.26,229.67A19.68,19.68,0,0,1,605.75,227c38,.94,202.5,20.45,362.59,189.43a20,20,0,0,1,1.23,26L823.74,629.91a20,20,0,0,1-12.34,7.42L573.21,679a20,20,0,0,1-22.58-13.88C528.82,593.19,454.51,312.45,595.26,229.67ZM461.18,1297c-73-21.32-345.58-109.92-348.18-245,0,0-14.56-159.15,347.33-250.89a20,20,0,0,1,23.33,11.67c36.15,86.2,78.66,197.27,89.64,226.12a20,20,0,0,1,0,14.2l-87.83,231.8A20,20,0,0,1,461.18,1297Zm509.19,394.15C740.62,1910,604.44,1883.44,576,1855c-131.36-122.72-49.87-356.72-25.31-418a20,20,0,0,1,22-12.26l223.19,39a20,20,0,0,1,11.8,6.75L971.85,1663.7A20,20,0,0,1,970.37,1691.16Zm95-104.09a20,20,0,0,1-30.93.17l-74.54-89.83a20,20,0,0,1,15.22-32.77l148.45-1.28c16.91-.14,26.36,19.47,15.7,32.6Zm447.06,282.85a20.14,20.14,0,0,1-10.49,5.21c-63.37,10.77-168.83-4.66-366.65-187.72a20,20,0,0,1-2.32-26.8l144.14-189.18a20,20,0,0,1,12.89-7.65l255.87-39.16a20,20,0,0,1,22.27,14.32C1586.8,1504.72,1643.43,1745.71,1512.42,1869.92Zm474.4-814.54c-4.83,47.79-107.5,188.33-335.22,243.46a20,20,0,0,1-21.45-8.46c-58.53-89.55-93.53-209.2-101.43-238a19.93,19.93,0,0,1,.63-12.49l88.25-228.37a20,20,0,0,1,23.9-12.09c68.16,18.44,313.71,95.13,345,250.14A19,19,0,0,1,1986.82,1055.38Z" transform="translate(-8.63 -136.21)"/><path class="cls-1" d="M990.67,1137.91a215.26,215.26,0,0,0,12.2,31.95c9.36,19.39,20.52,33.31,32.13,40.52v-81a280.69,280.69,0,0,0-41.94,7.83Z" transform="translate(-8.63 -136.21)"/><path class="cls-1" d="M983.68,1108.71l.43-.12a307.56,307.56,0,0,1,50.89-9.27V1065H978.56A342.69,342.69,0,0,0,983.68,1108.71Z" transform="translate(-8.63 -136.21)"/><path class="cls-1" d="M982.29,988.41a355,355,0,0,0-4.17,46.59H1035V996a289.63,289.63,0,0,1-51.34-7.26Z" transform="translate(-8.63 -136.21)"/><path class="cls-1" d="M962.2,1147.34a290.11,290.11,0,0,0-43.11,20.92,176.86,176.86,0,0,0,80.38,50.86c-8.7-9.65-16.65-21.78-23.62-36.23A243.47,243.47,0,0,1,962.2,1147.34Z" transform="translate(-8.63 -136.21)"/><path class="cls-1" d="M948.52,1065H874.14a175.34,175.34,0,0,0,26.68,79.22A314.74,314.74,0,0,1,954.94,1118,372.93,372.93,0,0,1,948.52,1065Z" transform="translate(-8.63 -136.21)"/><path class="cls-1" d="M975.85,906.11A174.47,174.47,0,0,1,988,884.77a177,177,0,0,0-68.74,46.83,262.79,262.79,0,0,0,40.51,18.74A251.6,251.6,0,0,1,975.85,906.11Z" transform="translate(-8.63 -136.21)"/><path class="cls-1" d="M1002.87,919.14A223.41,223.41,0,0,0,988.44,959c1.09.27,2.18.54,3.29.79A262.48,262.48,0,0,0,1035,966V878.62C1023.39,885.83,1012.23,899.75,1002.87,919.14Z" transform="translate(-8.63 -136.21)"/><path class="cls-1" d="M953.31,979.93a287.7,287.7,0,0,1-52.42-24.26A175.38,175.38,0,0,0,874.14,1035h74A382.62,382.62,0,0,1,953.31,979.93Z" transform="translate(-8.63 -136.21)"/><path class="cls-1" d="M1123.39,986.47a288.46,288.46,0,0,1-36.86,7.42q-10.74,1.43-21.53,2V1035h62.88A354,354,0,0,0,1123.39,986.47Z" transform="translate(-8.63 -136.21)"/><path class="cls-1" d="M1157.89,1035h68a175.27,175.27,0,0,0-27.07-79.84,333.84,333.84,0,0,1-46.58,22A382.64,382.64,0,0,1,1157.89,1035Z" transform="translate(-8.63 -136.21)"/><path class="cls-1" d="M1065,1127.88v85.6c13.73-5.7,27.17-20.91,38.13-43.62a219.21,219.21,0,0,0,13.45-36.28A253.81,253.81,0,0,0,1065,1127.88Z" transform="translate(-8.63 -136.21)"/><path class="cls-1" d="M1130.15,1182.89a158.14,158.14,0,0,1-21.22,33.48,177.15,177.15,0,0,0,79.06-56.46,290,290,0,0,0-42.51-18.35A248.9,248.9,0,0,1,1130.15,1182.89Z" transform="translate(-8.63 -136.21)"/><path class="cls-1" d="M1152.13,1112.25a316.56,316.56,0,0,1,52.6,22.6,175.27,175.27,0,0,0,21.13-69.85h-68.38A374.56,374.56,0,0,1,1152.13,1112.25Z" transform="translate(-8.63 -136.21)"/><path class="cls-1" d="M1145.54,947.64a307.63,307.63,0,0,0,34.79-16.53,177.16,177.16,0,0,0-60.14-43,177.54,177.54,0,0,1,10,18A248.86,248.86,0,0,1,1145.54,947.64Z" transform="translate(-8.63 -136.21)"/><path class="cls-1" d="M1103.13,919.14c-11-22.71-24.4-37.92-38.13-43.62V966a253.56,253.56,0,0,0,52.08-8.78A221.44,221.44,0,0,0,1103.13,919.14Z" transform="translate(-8.63 -136.21)"/><path class="cls-1" d="M1123.08,1104.43a347,347,0,0,0,4.36-39.43H1065v33c7.29.06,14.56.37,21.8,1A284.35,284.35,0,0,1,1123.08,1104.43Z" transform="translate(-8.63 -136.21)"/><path class="cls-3" d="M1063.68,844a60.43,60.43,0,0,0-10.68-1,59.09,59.09,0,0,0-8.21.57C933.32,846.34,843.5,937.88,843.5,1050c0,113.86,92.64,206.5,206.5,206.5s206.5-92.64,206.5-206.5C1256.5,940.73,1171.19,851,1063.68,844ZM988,884.77a174.47,174.47,0,0,0-12.11,21.34,251.6,251.6,0,0,0-16.12,44.23,262.79,262.79,0,0,1-40.51-18.74A177,177,0,0,1,988,884.77Zm-87.07,70.9a287.7,287.7,0,0,0,52.42,24.26,382.62,382.62,0,0,0-5.2,55.07h-74A175.38,175.38,0,0,1,900.89,955.67Zm-.07,188.55A175.34,175.34,0,0,1,874.14,1065h74.38a372.93,372.93,0,0,0,6.42,53A314.74,314.74,0,0,0,900.82,1144.22Zm18.27,24a290.11,290.11,0,0,1,43.11-20.92,243.47,243.47,0,0,0,13.65,35.55c7,14.45,14.92,26.58,23.62,36.23A176.86,176.86,0,0,1,919.09,1168.26ZM1035,1210.38c-11.61-7.21-22.77-21.13-32.13-40.52a215.26,215.26,0,0,1-12.2-31.95l2.39-.66a280.69,280.69,0,0,1,41.94-7.83Zm0-111.06a307.56,307.56,0,0,0-50.89,9.27l-.43.12a342.69,342.69,0,0,1-5.12-43.71H1035Zm0-64.32H978.12a355,355,0,0,1,4.17-46.59l1.37.34A289.63,289.63,0,0,0,1035,996Zm0-69a262.48,262.48,0,0,1-43.27-6.21c-1.11-.25-2.2-.52-3.29-.79a223.41,223.41,0,0,1,14.43-39.89c9.36-19.39,20.52-33.31,32.13-40.52Zm163.79-10.87a175.27,175.27,0,0,1,27.07,79.84h-68a382.64,382.64,0,0,0-5.68-57.86A333.84,333.84,0,0,0,1198.79,955.16Zm-18.46-24a307.63,307.63,0,0,1-34.79,16.53,248.86,248.86,0,0,0-15.39-41.53,177.54,177.54,0,0,0-10-18A177.16,177.16,0,0,1,1180.33,931.11ZM1065,875.52c13.73,5.7,27.17,20.91,38.13,43.62a221.44,221.44,0,0,1,13.95,38.06A253.56,253.56,0,0,1,1065,966Zm0,120.4q10.79-.61,21.53-2a288.46,288.46,0,0,0,36.86-7.42,354,354,0,0,1,4.49,48.53H1065Zm0,69.08h62.44a347,347,0,0,1-4.36,39.43,284.35,284.35,0,0,0-36.28-5.44c-7.24-.61-14.51-.92-21.8-1Zm0,148.48v-85.6a253.81,253.81,0,0,1,51.58,5.7,219.21,219.21,0,0,1-13.45,36.28C1092.17,1192.57,1078.73,1207.78,1065,1213.48Zm43.93,2.89a158.14,158.14,0,0,0,21.22-33.48,248.9,248.9,0,0,0,15.33-41.33,290,290,0,0,1,42.51,18.35A177.15,177.15,0,0,1,1108.93,1216.37Zm95.8-81.52a316.56,316.56,0,0,0-52.6-22.6,374.56,374.56,0,0,0,5.35-47.25h68.38A175.27,175.27,0,0,1,1204.73,1134.85Z" transform="translate(-8.63 -136.21)"/></svg>