<svg id="Capa_2" data-name="Capa 2" xmlns="http://www.w3.org/2000/svg" xmlns:xlink="http://www.w3.org/1999/xlink" viewBox="0 0 2100 2100"><defs><style>.cls-1{fill:url(#Degradado_sin_nombre_58);}.cls-2{fill:#fff;}</style><radialGradient id="Degradado_sin_nombre_58" cx="1050" cy="1050" r="1050" gradientUnits="userSpaceOnUse"><stop offset="0" stop-color="#d46fa5"/><stop offset="0.36" stop-color="#d46ca3"/><stop offset="0.63" stop-color="#d4639b"/><stop offset="0.86" stop-color="#d4538e"/><stop offset="1" stop-color="#d44583"/></radialGradient></defs><circle class="cls-1" cx="1050" cy="1050" r="1050"/><path class="cls-2" d="M1935.5,1197c-220-82-245-25-336-4-80-52-20-259-20-259h-120l-22,91s-17,100-109,181c-43-75-3-212-3-212s-52-5-120,0c18,37-133,317-163,401s-27-7-27-7l57-218h-71s2-34-2-68c-50-109-215,59-215,59s-94,59-191,97c-45-51-261-172-285-287s111-232,131-257,472-321,707-213c217,77-49,320-91,345-241,138-398,79-453,23-11,21,21,111,144,129,441,46,584-308,588-352s16-231-211.5-268.5c-635-60-964,408-966,560s363,367,363,367C390.5,1328,273.5,1479,273.5,1479s-145,199,39,258c444,3,326-415,326-415s12-11,86-50c-41,79,7,331,91,306s111-158,111-158-16,158,69,129c75.71-25.83,201.42-326.2,220.2-376.67-3.55,28,27.92,101.34,51.8,142.67-45,2-162,193-116,206,317,29,215-258,215-258s68-61,104-156c-7,59,50,99,43,142-87,25-124,182-86,211,177,11,232-122,193-220,70-50,276-15,329,46s41,120-36,190C1986.5,1490,2126.5,1342,1935.5,1197ZM359,1620.5c-73-122,211-272,211-272C624,1501.5,448,1663.5,359,1620.5Zm462-172c-57-190,125-320,125-320C969,1146.5,878,1448.5,821,1448.5Zm392,13s67-91,76-91S1312,1434.5,1213,1461.5Zm263-61s27-107,59-125S1561,1368.5,1476,1400.5Z" transform="translate(-0.15 0.15)"/></svg>