<svg id="Capa_4" data-name="Capa 4" xmlns="http://www.w3.org/2000/svg" xmlns:xlink="http://www.w3.org/1999/xlink" viewBox="0 0 1596.08 2000"><defs><style>.cls-1{fill:url(#Degradado_sin_nombre_41);}.cls-2{fill:url(#Degradado_sin_nombre_43);}</style><radialGradient id="Degradado_sin_nombre_41" cx="1050.4" cy="1049.96" r="904.67" gradientUnits="userSpaceOnUse"><stop offset="0" stop-color="#2772a7"/><stop offset="0.17" stop-color="#2a73a4"/><stop offset="0.31" stop-color="#35759d"/><stop offset="0.45" stop-color="#477a90"/><stop offset="0.58" stop-color="#60807d"/><stop offset="0.71" stop-color="#818865"/><stop offset="0.84" stop-color="#a99148"/><stop offset="0.96" stop-color="#d79d26"/><stop offset="1" stop-color="#e9a119"/></radialGradient><radialGradient id="Degradado_sin_nombre_43" cx="594.37" cy="450.44" r="68.09" gradientUnits="userSpaceOnUse"><stop offset="0" stop-color="#2772a7"/><stop offset="0.38" stop-color="#2972a6"/><stop offset="0.52" stop-color="#3074a1"/><stop offset="0.62" stop-color="#3c7798"/><stop offset="0.71" stop-color="#4d7b8b"/><stop offset="0.78" stop-color="#63817b"/><stop offset="0.85" stop-color="#7f8767"/><stop offset="0.9" stop-color="#a08f4e"/><stop offset="0.96" stop-color="#c59834"/><stop offset="1" stop-color="#e9a119"/></radialGradient></defs><path class="cls-1" d="M1848.39,2050c-4.47-45.44-136-233.58-274.78-327.31a13.43,13.43,0,0,1,4.47-24.25c107.8-24.75,169.5-40.7,198.59-57.58a27.24,27.24,0,0,0,6.88-41.6c-59.63-67.59-245-265.84-357.33-292.11a35,35,0,0,1-24.82-21.39c-64.69-168-223.87-842.56-670.5-1064.37-18.75-25-162.54-29.7-162.54-29.7S434,27.54,302.67,52.55c-129.73,65.64,26.57,336,76.58,400.11-9.38,107.84,126.59,397,142.22,409.48-10.94,17.19-145.35,523.58,90.65,667.37,68.77,15.63,92.22-223.5,82.84-229.75S832.49,1624.84,896.57,1642c-89.08-226.63-228.18-451.69-206.3-497-35.95,32.82-93.78,293.83-76.58,306.33s-95.34,59.39-90.65-395.42c18.75-131.28,46.88-143.79,43.76-211-17.19-67.21-95.34-76.58-153.17-434.49C352.68,316.68,251.09,187,307.35,119.76S524.6,249.48,541.79,263.54,663.7,176,932.52,466.72c240,259.48,389,776.72,418.25,884.84a45.78,45.78,0,0,0,24,29.18c64.56,31.68,276.23,138.82,322.89,204a17.22,17.22,0,0,1-14.63,27.21c-55.43-2.07-126.9-1.4-174.72,33.39-24.93,18.14-37.87,53.55-21.37,79.59,31.62,49.9,114.56,119.14,175.41,165.56C1725.7,1938.82,1851.12,2045,1848.39,2050Z" transform="translate(-252.36 -49.96)"/><path class="cls-2" d="M554.5,384.57c30.78,28.15,58.37,108.5,67.8,138.21a4.8,4.8,0,0,0,8.87.66c63.68-128.71-21.12-146.36-73.33-147.16A4.79,4.79,0,0,0,554.5,384.57Z" transform="translate(-252.36 -49.96)"/></svg>