<svg id="Capa_3" data-name="Capa 3" xmlns="http://www.w3.org/2000/svg" xmlns:xlink="http://www.w3.org/1999/xlink" viewBox="0 0 2100 2100"><defs><style>.cls-1{fill:url(#Degradado_sin_nombre_43);}</style><radialGradient id="Degradado_sin_nombre_43" cx="1050" cy="1050" r="1050" gradientUnits="userSpaceOnUse"><stop offset="0" stop-color="#2772a7"/><stop offset="0.38" stop-color="#2972a6"/><stop offset="0.52" stop-color="#3074a1"/><stop offset="0.62" stop-color="#3c7798"/><stop offset="0.71" stop-color="#4d7b8b"/><stop offset="0.78" stop-color="#63817b"/><stop offset="0.85" stop-color="#7f8767"/><stop offset="0.9" stop-color="#a08f4e"/><stop offset="0.96" stop-color="#c59834"/><stop offset="1" stop-color="#e9a119"/></radialGradient></defs><path class="cls-1" d="M1050,0C470.1,0,0,470.1,0,1050S470.1,2100,1050,2100s1050-470.1,1050-1050S1629.9,0,1050,0Zm593.32,1793.52c0-.17,0-.35-.07-.53-3.33-7.76-92.53-83.16-138.21-118-45.25-34.52-106.91-86-130.43-123.1-12.27-19.36-2.64-45.69,15.89-59.18,35.56-25.86,88.7-26.36,129.91-24.82a12.8,12.8,0,0,0,10.87-20.23c-34.68-48.51-192.07-128.17-240.07-151.72a34,34,0,0,1-17.88-21.7c-21.75-80.39-132.57-465-311-657.88C762.49,400.21,684.63,475.75,671.85,465.29S539.37,308.41,497.54,358.38s33.7,146.42,79,216.14c43,266.11,101.1,273.08,113.88,323.05,2.32,50-18.59,59.27-32.54,156.88-3.49,338.16,80.18,303.3,67.4,294s30.21-203.36,56.94-227.76c-16.27,33.7,87.15,201,153.39,369.53-42.75-11.47-135.11-211-148.57-248.51,1.91,31.58-16.78,175.33-62.92,164.84-175.47-106.91-75.54-483.41-67.4-496.19C645.12,901.06,544,686.08,551,605.9c-37.18-47.65-153.39-248.68-56.94-297.49C591.66,289.82,691.6,411.84,691.6,411.84s106.91,3.48,120.85,22.07c332.08,164.93,450.43,666.45,498.53,791.38a26,26,0,0,0,18.45,15.91c83.51,19.53,221.34,166.93,265.68,217.19a20.25,20.25,0,0,1-5.11,30.92c-21.63,12.56-67.51,24.42-147.66,42.82a10,10,0,0,0-3.32,18c102.69,69.34,200,208.19,204.23,242.83A.67.67,0,0,1,1643.32,1793.52Z"/></svg>