<svg id="Capa_2" data-name="Capa 2" xmlns="http://www.w3.org/2000/svg" viewBox="0 0 2100 2100"><defs><style>.cls-1{fill:#21759b;}</style></defs><path class="cls-1" d="M1050,0C470.1,0,0,470.1,0,1050S470.1,2100,1050,2100s1050-470.1,1050-1050S1629.9,0,1050,0Zm707.11,1757.11a997,997,0,0,1-317.88,214.33C1316,2023.57,1185,2050,1050,2050s-266-26.43-389.23-78.56a1003.71,1003.71,0,0,1-532.21-532.21C76.43,1316,50,1185,50,1050s26.43-266,78.56-389.23A1003.71,1003.71,0,0,1,660.77,128.56C784,76.43,915,50,1050,50s266,26.43,389.23,78.56a1003.71,1003.71,0,0,1,532.21,532.21C2023.57,784,2050,915,2050,1050s-26.43,266-78.56,389.23A997,997,0,0,1,1757.11,1757.11Z" transform="translate(0 0)"/><path class="cls-1" d="M228.12,689.42l-2.92-.12A897,897,0,0,0,150,1050c0,355.45,206.06,662.75,505.23,809Z" transform="translate(0 0)"/><path class="cls-1" d="M592.16,542.85c40.09-4.24,43.92,28.5,42.83,40,1.2,18.64-16.78,31.66-23.28,32.36-1.65,2.75-112,12.83-112,12.83l326.75,957.14s156-443.48,179.62-514.8c25.55-57.83-1.9-108-1.9-108S907.74,700.8,880.16,627.92c-144.58-1.3-122.18-34.54-124.09-47.38s6.14-39.06,36.77-37.53c102.64,18.38,401.37,4.59,441.65,0,21.91-4.6,74.53-8.24,74.53,39.68,13.71,47.34-133.21,47.63-133.21,47.63l321.85,957.4s108.63-352.29,133.47-453.52c52.41-188.55-4.92-292.47-32.22-347.56-269.34-372.2,47.82-407.79,47.82-407.79l8.39,4.94C1495.3,238.53,1283,150,1050,150c-312,0-586.86,158.74-748.32,399.85C319.67,563.3,546.21,545.05,592.16,542.85Z" transform="translate(0 0)"/><path class="cls-1" d="M1062.89,1135.71l-266.57,778a904.75,904.75,0,0,0,549.54-13.52Z" transform="translate(0 0)"/><path class="cls-1" d="M1838.35,615.52c-.74,12.6-1.22,26.12-1.22,40.2,29,62.15-30.33,290.31-30.33,290.31l-299.6,879.35c265-156.61,442.8-445.24,442.8-775.38C1950,892.43,1909.5,744.33,1838.35,615.52Z" transform="translate(0 0)"/></svg>